<ttFont>
          <CharString index="0">
            177 hlineto
            63 163 54 161 41 142 rrcurveto
            3 49 -244 0 rlineto
            -25 -161 -34 -184 -35 -170 rrcurveto
            return
          </CharString>
          <CharString index="1">
            0 0 186 580 5 16 5 -19 180 -577 0 0 rrcurveto
            return
          </CharString>
          <CharString index="2">
            283 0 146 414 513 0 145 -414 278 0 -531 1466 -295 0 rlineto
            return
          </CharString>
          <CharString index="3">
            406 177 vlineto
            213 111 -40 -161 -143 -94 -62 -175 hvcurveto
            return
          </CharString>
          <CharString index="4">
            475 228 vlineto
            213 106 -64 -167 -168 -107 -76 -205 hvcurveto
            return
          </CharString>
          <CharString index="5">
            543 hlineto
            340 212 145 280 hvcurveto
            0 180 -97 132 -183 45 rrcurveto
            191 61 28 161 0 93 rrcurveto
            272 -202 96 -375 vhcurveto
            -457 hlineto
            return
          </CharString>
          <CharString index="6">
            153 0 140 24 128 76 rrcurveto
            -36 212 rlineto
            -120 -61 -125 -31 -120 0 rrcurveto
            -280 -157 194 338 324 166 212 271 hvcurveto
            140 0 106 -45 98 -60 rrcurveto
            85 205 rlineto
            -130 87 -151 32 -154 0 rrcurveto
            -422 -289 -294 -453 -478 272 -282 425 hvcurveto
            return
          </CharString>
          <CharString index="7">
            449 hlineto
            500 307 259 479 497 -325 230 -507 hvcurveto
            -424 hlineto
            return
          </CharString>
          <CharString index="8">
            1030 165 vlineto
            355 187 -148 -367 -336 -179 -179 -334 hvcurveto
            return
          </CharString>
          <CharString index="9">
            890 0 9 216 -628 0 0 441 576 0 0 215 -576 0 0 378 606 0 11 215 -888 0 rlineto
            return
          </CharString>
          <CharString index="10">
            269 621 559 213 -559 416 588 hlineto
            10 215 -867 0 rlineto
            return
          </CharString>
          <CharString index="11">
            199 0 152 40 170 70 rrcurveto
            707 -560 vlineto
            -2 -213 307 0 0 -340 rlineto
            -70 -27 -89 -17 -95 0 rrcurveto
            -298 -146 213 319 330 179 206 297 hvcurveto
            135 0 126 -42 104 -56 rrcurveto
            88 202 rlineto
            -131 79 -153 36 -174 0 rrcurveto
            -475 -276 -306 -446 -465 263 -290 449 hvcurveto
            return
          </CharString>
          <CharString index="12">
            271 652 662 -652 271 1465 -271 -599 -662 599 -271 hlineto
            return
          </CharString>
          <CharString index="13">
            271 1465 -271 hlineto
            return
          </CharString>
          <CharString index="14">
            25 -5 38 -3 32 0 rrcurveto
            350 110 150 326 hvcurveto
            1322 -272 -1340 vlineto
            -164 -34 -81 -155 vhcurveto
            -28 0 -47 3 -30 5 rrcurveto
            return
          </CharString>
          <CharString index="15">
            272 563 hlineto
            112 94 478 -657 318 0 -589 806 rlineto
            554 659 -321 0 rlineto
            -129 -159 -299 -337 -124 -164 rrcurveto
            660 -272 vlineto
            return
          </CharString>
          <CharString index="16">
            876 0 8 216 -613 0 0 1249 -271 0 rlineto
            return
          </CharString>
          <CharString index="17">
            244 720 hlineto
            -9 424 37 -110 367 -934 232 0 375 929 37 110 -8 -415 0 -724 250 0 0 1465 -316 0 -446 -1058 -443 1058 -320 0 rlineto
            return
          </CharString>
          <CharString index="18">
            246 738 hlineto
            0 30 -7 308 -1 33 rrcurveto
            48 -79 661 -1030 292 0 0 1465 -247 0 0 -741 rlineto
            -13 7 -343 0 vhcurveto
            -30 46 -43 63 -30 46 -139 216 -330 509 -139 217 rrcurveto
            -288 hlineto
            return
          </CharString>
          <CharString index="19">
            439 275 283 470 476 -275 278 -438 -438 -277 -275 -478 -473 274 -281 440 hvcurveto
            return
          </CharString>
          <CharString index="20">
            -290 -141 201 329 333 143 205 289 288 141 -204 -334 -330 -140 -200 -290 hvcurveto
            return
          </CharString>
          <CharString index="21">
            -17 0 -163 0 -12 2 rrcurveto
            513 223 vlineto
            187 111 -84 -163 -128 -41 -140 -288 hvcurveto
            return
          </CharString>
          <CharString index="22">
            267 564 hlineto
            64 -6 142 -2 15 0 rrcurveto
            437 125 209 264 309 -225 131 -337 hvcurveto
            -488 hlineto
            return
          </CharString>
          <CharString index="23">
            -31 0 -237 1 -31 0 rrcurveto
            443 311 vlineto
            189 91 -66 -144 -163 -82 -71 -210 hvcurveto
            return
          </CharString>
          <CharString index="24">
            268 630 hlineto
            0 222 -2 5 vhcurveto
            41 0 55 0 17 -1 8 -13 74 -150 38 -81 rrcurveto
            171 -383 296 0 -218 452 rlineto
            -43 88 -43 83 -48 55 170 59 95 128 0 197 rrcurveto
            337 -219 70 -346 vhcurveto
            -543 hlineto
            return
          </CharString>
          <CharString index="25">
            327 220 150 284 hvcurveto
            0 237 -111 114 -263 86 -75 25 -122 37 -43 16 -76 23 -45 53 0 83 6 136 87 48 155 0 132 0 132 -43 100 -45 rrcurveto
            82 198 rlineto
            -132 75 -147 34 -178 0 -303 0 -214 -143 0 -272 0 -206 116 -119 179 -63 51 -21 162 -45 48 -15 114 -33 70 -59 0 -99 0 -136 -86 -79 -175 0 rrcurveto
            -146 0 -155 50 -119 66 rrcurveto
            -66 -215 rlineto
            124 -72 154 -50 197 0 rrcurveto
            return
          </CharString>
          <CharString index="26">
            272 1248 425 217 -1124 -217 427 hlineto
            return
          </CharString>
          <CharString index="27">
            390 203 206 340 hvcurveto
            940 -271 -914 vlineto
            -242 -92 -110 -225 -230 -89 110 241 vhcurveto
            915 -272 -938 vlineto
            -342 196 -206 390 vhcurveto
            return
          </CharString>
          <CharString index="28">
            279 0 343 1073 313 -1073 281 0 410 1465 -270 0 -290 -1144 -317 1137 -259 0 -334 -1133 -284 1140 -270 0 rlineto
            return
          </CharString>
          <CharString index="29">
            272 586 hlineto
            505 879 -290 0 -351 -634 -349 634 -294 0 507 -884 rlineto
            return
          </CharString>
          <CharString index="30">
            1097 0 1 216 -764 0 759 1052 0 197 -1066 0 0 -216 746 0 -773 -1075 rlineto
            return
          </CharString>
          <CharString index="31">
            163 0 -188 383 -306 0 rlineto
            return
          </CharString>
          <CharString index="32">
            -101 -57 51 94 hvcurveto
            0 142 107 48 200 18 7 0 93 8 6 0 rrcurveto
            -212 vlineto
            -35 -75 -90 -74 -130 0 rrcurveto
            return
          </CharString>
          <CharString index="33">
            158 0 92 56 101 99 rrcurveto
            1 -7 41 -120 1 -7 rrcurveto
            194 hlineto
            717 vlineto
            290 -129 119 -295 vhcurveto
            -168 0 -128 -30 -124 -53 2 -5 62 -171 2 -5 105 40 125 35 101 0 rrcurveto
            123 63 -56 -135 hvcurveto
            -58 vlineto
            -76 -8 -73 -6 -70 -9 -286 -28 -164 -92 0 -238 0 -220 147 -108 195 0 rrcurveto
            return
          </CharString>
          <CharString index="34">
            -172 -94 117 275 hvcurveto
            2 255 105 104 162 0 rrcurveto
            151 103 -120 -251 hvcurveto
            -249 -105 -131 -152 vhcurveto
            return
          </CharString>
          <CharString index="35">
            280 175 237 346 328 -163 236 -286 hvcurveto
            -181 0 -103 -98 -55 -72 4 84 2 75 0 66 rrcurveto
            0 340 -262 -17 rlineto
            -1503 227 vlineto
            26 140 rlineto
            48 -73 126 -89 162 0 rrcurveto
            return
          </CharString>
          <CharString index="36">
            138 0 90 26 91 60 rrcurveto
            -25 199 rlineto
            -80 -51 -92 -34 -105 0 rrcurveto
            -182 -107 128 248 249 113 123 173 hvcurveto
            86 0 94 -33 73 -38 rrcurveto
            62 187 rlineto
            -85 53 -109 30 -132 0 rrcurveto
            -313 -223 -199 -369 -376 200 -203 333 hvcurveto
            return
          </CharString>
          <CharString index="37">
            -156 -106 124 251 254 108 119 151 176 95 -112 -277 hvcurveto
            -3 -254 -100 -105 -165 0 rrcurveto
            return
          </CharString>
          <CharString index="38">
            208 0 73 98 45 73 rrcurveto
            29 -150 227 0 0 1521 -262 -17 0 -355 rlineto
            0 -51 4 -79 6 -59 -39 67 -88 99 -204 0 rrcurveto
            -290 -170 -230 -337 -347 171 -233 290 hvcurveto
            return
          </CharString>
          <CharString index="39">
            14 193 109 85 127 0 rrcurveto
            143 87 -98 -180 hvcurveto
            return
          </CharString>
          <CharString index="40">
            175 0 116 39 102 63 rrcurveto
            -37 186 rlineto
            -97 -55 -113 -39 -136 0 -188 0 -113 117 -5 206 rrcurveto
            731 hlineto
            0 36 1 41 0 34 0 306 -169 213 -309 0 -322 -1 -196 -225 0 -347 0 -358 206 -216 354 0 rrcurveto
            return
          </CharString>
          <CharString index="41">
            262 925 258 174 -258 75 hlineto
            125 42 50 113 vhcurveto
            38 0 46 -5 45 -6 rrcurveto
            23 195 rlineto
            -66 12 -71 7 -67 0 -276 0 -88 -133 -1 -259 rrcurveto
            0 -61 rlineto
            -157 -20 -17 -154 174 0 rlineto
            return
          </CharString>
          <CharString index="42">
            -180 -99 174 205 215 94 149 198 hvcurveto
            171 -2 87 -125 3 -215 rrcurveto
            -38 vlineto
            -2 -210 -68 -153 -204 0 rrcurveto
            return
          </CharString>
          <CharString index="43">
            151 hlineto
            517 121 203 367 hvcurveto
            1021 -234 vlineto
            -18 -134 rlineto
            -66 98 -101 63 -162 0 rrcurveto
            -262 -224 -201 -363 -332 209 -230 290 hvcurveto
            176 0 70 69 60 83 3 -39 3 -64 0 -42 rrcurveto
            -223 -113 -64 -302 vhcurveto
            -133 hlineto
            return
          </CharString>
          <CharString index="44">
            262 529 hlineto
            0 95 7 80 17 65 43 90 94 69 121 0 rrcurveto
            140 49 -86 -175 hvcurveto
            -667 262 696 vlineto
            301 -150 129 -237 vhcurveto
            -178 0 -110 -80 -64 -76 0 11 6 184 0 39 rrcurveto
            0 317 -262 -17 rlineto
            return
          </CharString>
          <CharString index="45">
            263 224 -263 hlineto
            return
          </CharString>
          <CharString index="46">
            262 1099 -262 hlineto
            return
          </CharString>
          <CharString index="47">
            262 224 -262 hlineto
            return
          </CharString>
          <CharString index="48">
            59 hlineto
            350 65 145 308 hvcurveto
            1073 -262 -1115 vlineto
            -165 -19 -52 -164 vhcurveto
            -58 hlineto
            return
          </CharString>
          <CharString index="49">
            262 413 hlineto
            109 86 362 -499 317 0 -481 631 rlineto
            452 468 -312 0 rlineto
            -135 -140 -154 -149 -122 -145 -4 -4 -35 -34 -3 -3 rrcurveto
            6 222 0 675 -262 -17 rlineto
            return
          </CharString>
          <CharString index="50">
            81 0 86 21 18 3 rrcurveto
            -7 187 rlineto
            -49 -7 -39 -4 -39 0 rrcurveto
            -136 -35 58 195 hvcurveto
            0 1083 -262 -17 0 -1071 rlineto
            -304 79 -144 303 vhcurveto
            return
          </CharString>
          <CharString index="51">
            262 533 hlineto
            0 96 8 80 15 66 39 84 78 68 117 0 rrcurveto
            144 36 -110 -181 hvcurveto
            -636 262 643 vlineto
            6 54 12 50 20 43 41 85 74 53 105 0 rrcurveto
            140 31 -103 -201 hvcurveto
            -624 263 702 vlineto
            274 -109 150 -257 vhcurveto
            -154 0 -129 -64 -79 -113 -35 77 -92 100 -193 0 -214 0 -95 -98 -54 -69 rrcurveto
            -30 140 -212 0 rlineto
            return
          </CharString>
          <CharString index="52">
            262 535 hlineto
            0 95 3 79 16 66 41 86 100 67 117 0 153 0 40 -101 1 -164 rrcurveto
            -663 263 695 vlineto
            275 -123 156 -260 vhcurveto
            -165 0 -115 -74 -93 -92 rrcurveto
            -29 139 -211 0 rlineto
            return
          </CharString>
          <CharString index="53">
            343 193 228 346 341 -193 232 -332 -344 -191 -223 -350 -338 194 -236 330 hvcurveto
            return
          </CharString>
          <CharString index="54">
            -181 -89 138 236 241 89 135 179 182 87 -135 -240 -238 -87 -137 -180 hvcurveto
            return
          </CharString>
          <CharString index="55">
            -173 -95 117 278 hvcurveto
            2 249 99 105 162 0 rrcurveto
            156 101 -117 -254 hvcurveto
            -246 -99 -132 -153 vhcurveto
            return
          </CharString>
          <CharString index="56">
            262 13 0 415 rlineto
            0 39 -7 105 -1 18 73 -91 114 -63 143 0 rrcurveto
            287 171 242 334 326 -169 246 -277 hvcurveto
            -147 0 -124 -67 -72 -115 rrcurveto
            -28 154 -225 0 rlineto
            return
          </CharString>
          <CharString index="57">
            262 596 hlineto
            176 88 115 200 vhcurveto
            28 0 28 -2 27 -4 rrcurveto
            4 219 rlineto
            -20 3 -24 1 -26 0 -137 0 -106 -61 -70 -112 rrcurveto
            -34 168 -220 0 rlineto
            return
          </CharString>
          <CharString index="58">
            272 0 154 125 1 220 0 169 -100 91 -193 71 -21 8 -20 7 -19 7 -150 55 -61 26 0 73 0 74 66 33 102 0 105 0 110 -34 84 -39 rrcurveto
            65 181 rlineto
            -107 53 -120 26 -142 0 -255 0 -156 -107 0 -203 0 -171 92 -82 194 -75 13 -5 33 -12 11 -4 156 -60 63 -31 0 -81 -1 -86 -71 -42 -113 0 rrcurveto
            -119 0 -154 49 -81 44 rrcurveto
            -27 -197 rlineto
            93 -53 129 -30 167 0 rrcurveto
            return
          </CharString>
          <CharString index="59">
            81 0 80 19 19 3 rrcurveto
            -7 188 rlineto
            -13 -2 -62 -8 -47 0 rrcurveto
            -134 -35 70 161 hvcurveto
            524 273 159 -273 299 vlineto
            -160 -1 -84 -298 rlineto
            -188 -17 -10 -142 180 0 0 -519 rlineto
            1 -291 77 -145 302 0 rrcurveto
            return
          </CharString>
          <CharString index="60">
            273 203 136 285 hvcurveto
            699 -262 -689 vlineto
            -166 -65 -67 -146 -148 -67 67 166 vhcurveto
            689 -263 -699 vlineto
            -287 203 -134 272 vhcurveto
            return
          </CharString>
          <CharString index="61">
            258 hlineto
            25 76 205 703 22 79 23 -78 192 -703 24 -77 rrcurveto
            261 0 344 1099 -263 0 -217 -803 rlineto
            -22 75 -180 654 -23 74 rrcurveto
            -269 hlineto
            -24 -74 -188 -656 -23 -76 rrcurveto
            -211 806 -267 0 rlineto
            return
          </CharString>
          <CharString index="62">
            224 0 137 95 96 249 4 10 457 1208 0 0 rrcurveto
            -280 hlineto
            -63 -194 -148 -401 -55 -202 rrcurveto
            -289 797 -280 0 442 -1079 rlineto
            -15 -43 -12 -38 -13 -32 -50 -126 -69 -38 -118 0 -39 0 -41 1 -37 4 rrcurveto
            13 -203 rlineto
            45 -5 45 -3 46 0 rrcurveto
            return
          </CharString>
          <CharString index="63">
            852 191 -533 hlineto
            515 729 0 179 -808 0 0 -182 518 0 -544 -758 rlineto
            return
          </CharString>
          <CharString index="64">
            196 254 -196 hlineto
            return
          </CharString>
          <CharString index="65">
            195 254 -195 hlineto
            return
          </CharString>
          <CharString index="66">
            686 153 -686 hlineto
            return
          </CharString>
          <CharString index="67">
            155 0 315 383 -299 0 rlineto
            return
          </CharString>
          <CharString index="68">
            209 0 58 381 -144 0 rlineto
            return
          </CharString>
          <CharString index="69">
            179 0 172 218 174 -218 184 0 -251 383 -208 0 rlineto
            return
          </CharString>
          <CharString index="70">
            144 hlineto
            1 61 16 29 33 0 rrcurveto
            69 0 149 -90 109 0 rrcurveto
            155 11 144 95 hvcurveto
            -147 hlineto
            -53 -13 -31 -34 vhcurveto
            -42 0 -146 84 -133 0 rrcurveto
            -156 -16 -136 -103 hvcurveto
            return
          </CharString>
          <CharString index="71">
            138 82 97 107 106 -80 94 -140 -141 -80 -94 -106 -107 82 -97 139 hvcurveto
            return
          </CharString>
          <CharString index="72">
            -71 -36 52 58 58 36 54 71 70 36 -56 -56 -57 -35 -53 -71 hvcurveto
            return
          </CharString>
          <CharString index="73">
            255 1098 -255 hlineto
            return
          </CharString>
          <CharString index="74">
            168 123 80 172 hvcurveto
            -167 hlineto
            -68 -38 -28 -86 -87 -37 28 68 vhcurveto
            -167 hlineto
            -172 123 -80 168 vhcurveto
            return
          </CharString>
          <CharString index="75">
            64 0 69 14 59 23 rrcurveto
            140 vlineto
            -13 -5 -68 -32 -61 0 -52 0 -30 45 0 42 0 63 38 72 86 64 rrcurveto
            -108 hlineto
            -81 -46 -110 -79 0 -129 0 -118 94 -54 113 0 rrcurveto
            return
          </CharString>
          <CharString index="76">
            201 216 -201 hlineto
            return
          </CharString>
          <CharString index="77">
            202 0 262 353 -203 0 -164 -196 -161 196 -198 0 rlineto
            return
          </CharString>
          <CharString index="78">
            95 498 185 0 -144 -498 rlineto
            return
          </CharString>
          <CharString index="79">
            40 hlineto
            334 74 147 315 hvcurveto
            991 -237 -1034 vlineto
            -169 -17 -53 -164 vhcurveto
            -35 hlineto
            return
          </CharString>
          <CharString index="80">
            134 0 338 361 -225 0 rlineto
            return
          </CharString>
          <CharString index="81">
            134 0 338 361 -226 0 rlineto
            return
          </CharString>
          <CharString index="82">
            188 0 -227 339 -258 0 rlineto
            return
          </CharString>
          <CharString index="83">
            171 0 -211 339 -275 0 rlineto
            return
          </CharString>
          <CharString index="84">
            167 hlineto
            72 61 36 61 61 64 -34 -74 vhcurveto
            167 hlineto
            162 -144 78 -144 -146 -147 -80 -160 vhcurveto
            return
          </CharString>
        <CharString name=".notdef">
          -182 102 hmoveto
          820 1092 -820 hlineto
          102 -990 rmoveto
          888 616 -888 vlineto
          endchar
        </CharString>
        <CharString name="A">
          153 494 616 rmoveto
          -106 callsubr
          -873 -616 rmoveto
          -105 callsubr
          endchar
        </CharString>
        <CharString name="AE">
          815 638 572 rmoveto
          365 663 50 -663 rlineto
          -1015 -572 rmoveto
          302 0 205 375 524 0 30 -375 813 0 14 196 -565 0 -39 459 529 0 0 196 -549 0 -33 434 607 0 15 196 -1009 0 rlineto
          endchar
        </CharString>
        <CharString name="Aacute">
          153 602 1608 rmoveto
          -40 callsubr
          -279 -1375 rmoveto
          -106 callsubr
          -873 -616 rmoveto
          -105 callsubr
          endchar
        </CharString>
        <CharString name="Abreve">
          153 679.5 1608 rmoveto
          -33 callsubr
          -185.5 -992 rmoveto
          -106 callsubr
          -873 -616 rmoveto
          -105 callsubr
          endchar
        </CharString>
        <CharString name="Acircumflex">
          153 325 1608 rmoveto
          -38 callsubr
          -81 -1375 rmoveto
          -106 callsubr
          -873 -616 rmoveto
          -105 callsubr
          endchar
        </CharString>
        <CharString name="Adieresis">
          153 792 1608 rmoveto
          -43 callsubr
          -421 -254 rmoveto
          -42 callsubr
          123 -1246 rmoveto
          -106 callsubr
          -873 -616 rmoveto
          -105 callsubr
          endchar
        </CharString>
        <CharString name="Agrave">
          153 598 1608 rmoveto
          -76 callsubr
          227 -1375 rmoveto
          -106 callsubr
          -873 -616 rmoveto
          -105 callsubr
          endchar
        </CharString>
        <CharString name="Amacron">
          153 336.5 1608 rmoveto
          -41 callsubr
          157.5 -1145 rmoveto
          -106 callsubr
          -873 -616 rmoveto
          -105 callsubr
          endchar
        </CharString>
        <CharString name="Aogonek">
          153 1172 -411.799804688 rmoveto
          -32 callsubr
          -678 1027.79980469 rmoveto
          -106 callsubr
          -873 -616 rmoveto
          -105 callsubr
          endchar
        </CharString>
        <CharString name="Aring">
          153 680 1472.53320312 rmoveto
          -36 callsubr
          93 vmoveto
          -35 callsubr
          -186 -949.533203125 rmoveto
          -106 callsubr
          -873 -616 rmoveto
          -105 callsubr
          endchar
        </CharString>
        <CharString name="Atilde">
          153 336 1608 rmoveto
          -37 callsubr
          158 -992 rmoveto
          -106 callsubr
          -873 -616 rmoveto
          -105 callsubr
          endchar
        </CharString>
        <CharString name="B">
          127 429 860 rmoveto
          -104 callsubr
          -232 -664 rmoveto
          -103 callsubr
          -506 -196 rmoveto
          -102 callsubr
          endchar
        </CharString>
        <CharString name="C">
          95 797 -21 rmoveto
          -101 callsubr
          endchar
        </CharString>
        <CharString name="Cacute">
          95 595.5 1608 rmoveto
          -40 callsubr
          30.5 -2012 rmoveto
          -101 callsubr
          endchar
        </CharString>
        <CharString name="Ccaron">
          95 572 1608 rmoveto
          -30 callsubr
          487 -1982 rmoveto
          -101 callsubr
          endchar
        </CharString>
        <CharString name="Ccedilla">
          95 595 -389.299804688 rmoveto
          -39 callsubr
          79 -12.7001953125 rmoveto
          -101 callsubr
          endchar
        </CharString>
        <CharString name="Ccircumflex">
          95 318.5 1608 rmoveto
          -38 callsubr
          228.5 -2012 rmoveto
          -101 callsubr
          endchar
        </CharString>
        <CharString name="Cdotaccent">
          95 572.5 1608 rmoveto
          -31 callsubr
          224.5 -1845 rmoveto
          -101 callsubr
          endchar
        </CharString>
        <CharString name="D">
          308 159 hmoveto
          -100 callsubr
          271 -1248 rmoveto
          -99 callsubr
          endchar
        </CharString>
        <CharString name="Dcaron">
          308 686 1608 rmoveto
          -30 callsubr
          -265 -1961 rmoveto
          -100 callsubr
          271 -1248 rmoveto
          -99 callsubr
          endchar
        </CharString>
        <CharString name="E">
          158 hmoveto
          -98 callsubr
          endchar
        </CharString>
        <CharString name="Eacute">
          530 1608 rmoveto
          -40 callsubr
          -543 -1991 rmoveto
          -98 callsubr
          endchar
        </CharString>
        <CharString name="Ecaron">
          506.5 1608 rmoveto
          -30 callsubr
          -86.5 -1961 rmoveto
          -98 callsubr
          endchar
        </CharString>
        <CharString name="Ecircumflex">
          253 1608 rmoveto
          -38 callsubr
          -345 -1991 rmoveto
          -98 callsubr
          endchar
        </CharString>
        <CharString name="Edieresis">
          720 1608 rmoveto
          -43 callsubr
          -421 -254 rmoveto
          -42 callsubr
          -141 -1862 rmoveto
          -98 callsubr
          endchar
        </CharString>
        <CharString name="Edotaccent">
          507 1608 rmoveto
          -31 callsubr
          -349 -1824 rmoveto
          -98 callsubr
          endchar
        </CharString>
        <CharString name="Egrave">
          526 1608 rmoveto
          -76 callsubr
          -37 -1991 rmoveto
          -98 callsubr
          endchar
        </CharString>
        <CharString name="Emacron">
          264.5 1608 rmoveto
          -41 callsubr
          -106.5 -1761 rmoveto
          -98 callsubr
          endchar
        </CharString>
        <CharString name="Eogonek">
          623.5 -411.799804688 rmoveto
          -32 callsubr
          -465.5 411.799804688 rmoveto
          -98 callsubr
          endchar
        </CharString>
        <CharString name="Eth">
          318 131 1 rmoveto
          486 hlineto
          489 335 250 478 542 -375 192 -544 hvcurveto
          -391 -634 -125 -179 125 hlineto
          267 -444 rmoveto
          444 199 179 -199 427 144 vlineto
          409 220 -128 -403 -335 -194 -184 -344 hvcurveto
          endchar
        </CharString>
        <CharString name="Euro">
          4 773 -20 rmoveto
          141 0 105 40 94 66 rrcurveto
          1 208 rlineto
          -100 -81 -110 -41 -102 0 -182 0 -135 128 -39 215 rrcurveto
          517 0 21 152 -561 0 rlineto
          1 0 1 132 1 12 rrcurveto
          567 0 26 147 -568 0 rlineto
          26 208 151 135 180 0 103 0 102 -49 71 -100 rrcurveto
          47 195 rlineto
          -84 84 -111 44 -136 0 -338 0 -181 -233 -58 -285 rrcurveto
          -118 0 -27 -146 122 0 rlineto
          0 -10 -2 -61 0 -10 0 -4 -1 -55 0 -4 rrcurveto
          -93 0 -23 -152 136 0 rlineto
          46 -282 159 -253 351 0 rrcurveto
          endchar
        </CharString>
        <CharString name="F">
          -103 158 hmoveto
          -97 callsubr
          endchar
        </CharString>
        <CharString name="G">
          260 812 -21 rmoveto
          -96 callsubr
          endchar
        </CharString>
        <CharString name="Gbreve">
          260 716.5 1608 rmoveto
          -33 callsubr
          95.5 -1629 rmoveto
          -96 callsubr
          endchar
        </CharString>
        <CharString name="Gcircumflex">
          260 362 1608 rmoveto
          -38 callsubr
          200 -2012 rmoveto
          -96 callsubr
          endchar
        </CharString>
        <CharString name="Gcommaaccent">
          260 576.5 -641 rmoveto
          -29 callsubr
          -6 648 rmoveto
          0 vmoveto
          105.5 -28 rmoveto
          -96 callsubr
          endchar
        </CharString>
        <CharString name="Gdotaccent">
          260 616 1608 rmoveto
          -31 callsubr
          196 -1845 rmoveto
          -96 callsubr
          endchar
        </CharString>
        <CharString name="H">
          314 158 hmoveto
          -95 callsubr
          endchar
        </CharString>
        <CharString name="Hbar">
          285 398 853 rmoveto
          325 697 -325 vlineto
          -964 -853 rmoveto
          267 658 697 -658 268 1178 86 132 -86 148 -268 -148 -697 148 -267 hlineto
          -148 -86 -132 86 vlineto
          endchar
        </CharString>
        <CharString name="Hcircumflex">
          314 405.5 1608 rmoveto
          -38 callsubr
          -497.5 -1991 rmoveto
          -95 callsubr
          endchar
        </CharString>
        <CharString name="I">
          -604 165 hmoveto
          -94 callsubr
          endchar
        </CharString>
        <CharString name="IJ">
          29 529 -321 rmoveto
          -93 callsubr
          -353 108 rmoveto
          -94 callsubr
          endchar
        </CharString>
        <CharString name="Iacute">
          -604 223 1608 rmoveto
          -40 callsubr
          -229 -1991 rmoveto
          -94 callsubr
          endchar
        </CharString>
        <CharString name="Ibreve">
          -604 300.5 1608 rmoveto
          -33 callsubr
          -135.5 -1608 rmoveto
          -94 callsubr
          endchar
        </CharString>
        <CharString name="Icircumflex">
          -604 -54 1608 rmoveto
          -38 callsubr
          -31 -1991 rmoveto
          -94 callsubr
          endchar
        </CharString>
        <CharString name="Idieresis">
          -604 413 1608 rmoveto
          -43 callsubr
          -421 -254 rmoveto
          -42 callsubr
          173 -1862 rmoveto
          -94 callsubr
          endchar
        </CharString>
        <CharString name="Idotaccent">
          -604 200 1588 rmoveto
          -31 callsubr
          -35 -1804 rmoveto
          -94 callsubr
          endchar
        </CharString>
        <CharString name="Igrave">
          -604 219 1608 rmoveto
          -76 callsubr
          277 -1991 rmoveto
          -94 callsubr
          endchar
        </CharString>
        <CharString name="Imacron">
          -604 -42.5 1608 rmoveto
          -41 callsubr
          207.5 -1761 rmoveto
          -94 callsubr
          endchar
        </CharString>
        <CharString name="Iogonek">
          -604 262.5 -411.799804688 rmoveto
          -32 callsubr
          -97.5 411.799804688 rmoveto
          -94 callsubr
          endchar
        </CharString>
        <CharString name="Itilde">
          -604 -43 1608 rmoveto
          -37 callsubr
          208 -1608 rmoveto
          -94 callsubr
          endchar
        </CharString>
        <CharString name="J">
          -573 -73 -321 rmoveto
          -93 callsubr
          endchar
        </CharString>
        <CharString name="Jcircumflex">
          -573 -8.5 1608 rmoveto
          -38 callsubr
          -314.5 -2312 rmoveto
          -93 callsubr
          endchar
        </CharString>
        <CharString name="K">
          142 157 hmoveto
          -92 callsubr
          endchar
        </CharString>
        <CharString name="Kcommaaccent">
          142 617 -620 rmoveto
          -29 callsubr
          -6 648 rmoveto
          0 vmoveto
          -590 -28 rmoveto
          -92 callsubr
          endchar
        </CharString>
        <CharString name="L">
          -135 158 hmoveto
          -91 callsubr
          endchar
        </CharString>
        <CharString name="Lacute">
          -135 522.5 1608 rmoveto
          -40 callsubr
          -535.5 -1991 rmoveto
          -91 callsubr
          endchar
        </CharString>
        <CharString name="Lcommaaccent">
          -135 470 -620 rmoveto
          -29 callsubr
          -6 648 rmoveto
          0 vmoveto
          -442 -28 rmoveto
          -91 callsubr
          endchar
        </CharString>
        <CharString name="Ldot">
          -135 768 719 rmoveto
          198 168 -198 vlineto
          -778 -719 rmoveto
          -91 callsubr
          endchar
        </CharString>
        <CharString name="Lslash">
          -194 131 hmoveto
          872 0 15 202 -619 0 0 544 323 184 0 186 -323 -184 0 531 -268 0 0 -689 -151 -89 0 -185 151 89 rlineto
          endchar
        </CharString>
        <CharString name="M">
          635 158 hmoveto
          -90 callsubr
          endchar
        </CharString>
        <CharString name="N">
          348 158 hmoveto
          -89 callsubr
          endchar
        </CharString>
        <CharString name="Nacute">
          348 700 1608 rmoveto
          -40 callsubr
          -713 -1991 rmoveto
          -89 callsubr
          endchar
        </CharString>
        <CharString name="Ncaron">
          348 676.5 1608 rmoveto
          -30 callsubr
          -256.5 -1961 rmoveto
          -89 callsubr
          endchar
        </CharString>
        <CharString name="Ncommaaccent">
          348 647.5 -620 rmoveto
          -29 callsubr
          -6 648 rmoveto
          0 vmoveto
          -619.5 -28 rmoveto
          -89 callsubr
          endchar
        </CharString>
        <CharString name="Ntilde">
          348 434 1608 rmoveto
          -37 callsubr
          -276 -1608 rmoveto
          -89 callsubr
          endchar
        </CharString>
        <CharString name="O">
          420 813 -21 rmoveto
          -88 callsubr
          1 221 rmoveto
          -87 callsubr
          endchar
        </CharString>
        <CharString name="OE">
          970 813 188 rmoveto
          -319 1 -151 258 0 288 2 286 162 262 304 0 163 0 119 -55 75 -75 rrcurveto
          -848 vlineto
          -68 -62 -127 -55 -160 0 rrcurveto
          2 -207 rmoveto
          136 0 131 44 86 60 rrcurveto
          -81 945 vlineto
          17 205 -705 0 0 452 627 0 0 202 -627 0 0 393 658 0 18 205 -933 0 0 -77 rlineto
          -94 64 -121 42 -144 0 -415 0 -311 -317 -2 -435 0 -440 301 -317 433 0 rrcurveto
          endchar
        </CharString>
        <CharString name="Oacute">
          420 735.5 1608 rmoveto
          -40 callsubr
          -93.5 -2012 rmoveto
          -88 callsubr
          1 221 rmoveto
          -87 callsubr
          endchar
        </CharString>
        <CharString name="Obreve">
          420 813 1608 rmoveto
          -33 callsubr
          -1629 vmoveto
          -88 callsubr
          1 221 rmoveto
          -87 callsubr
          endchar
        </CharString>
        <CharString name="Ocircumflex">
          420 458.5 1608 rmoveto
          -38 callsubr
          104.5 -2012 rmoveto
          -88 callsubr
          1 221 rmoveto
          -87 callsubr
          endchar
        </CharString>
        <CharString name="Odieresis">
          420 925.5 1608 rmoveto
          -43 callsubr
          -421 -254 rmoveto
          -42 callsubr
          308.5 -1883 rmoveto
          -88 callsubr
          1 221 rmoveto
          -87 callsubr
          endchar
        </CharString>
        <CharString name="Ograve">
          420 731.5 1608 rmoveto
          -76 callsubr
          412.5 -2012 rmoveto
          -88 callsubr
          1 221 rmoveto
          -87 callsubr
          endchar
        </CharString>
        <CharString name="Ohungarumlaut">
          420 901.5 1608 rmoveto
          -27 callsubr
          -558 -361 rmoveto
          -26 callsubr
          -23.5 -1990 rmoveto
          -88 callsubr
          1 221 rmoveto
          -87 callsubr
          endchar
        </CharString>
        <CharString name="Omacron">
          420 470 1608 rmoveto
          -41 callsubr
          343 -1782 rmoveto
          -88 callsubr
          1 221 rmoveto
          -87 callsubr
          endchar
        </CharString>
        <CharString name="Oslash">
          418 815 191 rmoveto
          -59 0 -52 7 -47 15 rrcurveto
          428 979 rlineto
          126 -91 63 -166 0 -209 0 -322 -152 -213 -307 0 rrcurveto
          -258 69 rmoveto
          -133 88 -68 166 0 212 0 325 153 220 306 0 63 0 56 -10 50 -17 rrcurveto
          -514 -1455 rmoveto
          98 224 rlineto
          75 -22 82 -12 87 0 430 0 301 285 0 466 0 324 -139 234 -225 116 rrcurveto
          93 215 -106 41 -93 -213 rlineto
          -79 25 -86 13 -92 0 -429 0 -303 -281 0 -474 0 -329 146 -237 236 -112 rrcurveto
          -96 -221 rlineto
          endchar
        </CharString>
        <CharString name="Otilde">
          420 469.5 1608 rmoveto
          -37 callsubr
          343.5 -1629 rmoveto
          -88 callsubr
          1 221 rmoveto
          -87 callsubr
          endchar
        </CharString>
        <CharString name="P">
          39 610 752 rmoveto
          -86 callsubr
          -459 -752 rmoveto
          -85 callsubr
          endchar
        </CharString>
        <CharString name="Q">
          420 814 200 rmoveto
          -87 callsubr
          438 -678 rmoveto
          174 151 rlineto
          -139 128 -100 166 -47 76 244 108 143 242 0 339 rrcurveto
          476 -275 278 -438 -438 -277 -275 -478 -473 274 -281 440 vhcurveto
          28 0 27 2 26 2 81 -152 160 -224 117 -85 rrcurveto
          endchar
        </CharString>
        <CharString name="R">
          188 718 824 rmoveto
          -84 callsubr
          -567 -824 rmoveto
          -83 callsubr
          endchar
        </CharString>
        <CharString name="Racute">
          188 671 1608 rmoveto
          -40 callsubr
          -124 -1167 rmoveto
          -84 callsubr
          -567 -824 rmoveto
          -83 callsubr
          endchar
        </CharString>
        <CharString name="Rcaron">
          188 647.5 1608 rmoveto
          -30 callsubr
          332.5 -1137 rmoveto
          -84 callsubr
          -567 -824 rmoveto
          -83 callsubr
          endchar
        </CharString>
        <CharString name="Rcommaaccent">
          188 618.5 -620 rmoveto
          -29 callsubr
          -6 648 rmoveto
          0 vmoveto
          -30.5 796 rmoveto
          -84 callsubr
          -567 -824 rmoveto
          -83 callsubr
          endchar
        </CharString>
        <CharString name="S">
          -17 569 -20 rmoveto
          -82 callsubr
          endchar
        </CharString>
        <CharString name="Sacute">
          -17 527.5 1613 rmoveto
          -40 callsubr
          -129.5 -2016 rmoveto
          -82 callsubr
          endchar
        </CharString>
        <CharString name="Scaron">
          -17 504 1613 rmoveto
          -30 callsubr
          327 -1986 rmoveto
          -82 callsubr
          endchar
        </CharString>
        <CharString name="Scedilla">
          -17 410 -388.299804688 rmoveto
          -39 callsubr
          36 -12.7001953125 rmoveto
          -82 callsubr
          endchar
        </CharString>
        <CharString name="Scommaaccent">
          -17 465 -640 rmoveto
          -29 callsubr
          -6 648 rmoveto
          0 vmoveto
          -26 -28 rmoveto
          -82 callsubr
          endchar
        </CharString>
        <CharString name="T">
          441 hmoveto
          -81 callsubr
          endchar
        </CharString>
        <CharString name="Tcaron">
          475 1608 rmoveto
          -30 callsubr
          228 -1961 rmoveto
          -81 callsubr
          endchar
        </CharString>
        <CharString name="Tcommaaccent">
          441 hmoveto
          -81 callsubr
          -115 -1606 rmoveto
          -39 callsubr
          endchar
        </CharString>
        <CharString name="Thorn">
          121 401 534 rmoveto
          -1 518 310 0 rlineto
          221 119 -75 -184 -164 -114 -95 -199 hvcurveto
          -559 -523 rmoveto
          222 328 hlineto
          0 322 -2 2 316 234 157 291 323 -251 121 -336 vhcurveto
          -287 225 -222 hlineto
          endchar
        </CharString>
        <CharString name="U">
          262 730 -21 rmoveto
          -80 callsubr
          endchar
        </CharString>
        <CharString name="Uacute">
          262 656 1608 rmoveto
          -40 callsubr
          -97 -2012 rmoveto
          -80 callsubr
          endchar
        </CharString>
        <CharString name="Ubreve">
          262 733.5 1608 rmoveto
          -33 callsubr
          -3.5 -1629 rmoveto
          -80 callsubr
          endchar
        </CharString>
        <CharString name="Ucircumflex">
          262 379 1608 rmoveto
          -38 callsubr
          101 -2012 rmoveto
          -80 callsubr
          endchar
        </CharString>
        <CharString name="Udieresis">
          262 846 1608 rmoveto
          -43 callsubr
          -421 -254 rmoveto
          -42 callsubr
          305 -1883 rmoveto
          -80 callsubr
          endchar
        </CharString>
        <CharString name="Ugrave">
          262 652 1608 rmoveto
          -76 callsubr
          409 -2012 rmoveto
          -80 callsubr
          endchar
        </CharString>
        <CharString name="Uhungarumlaut">
          262 822 1608 rmoveto
          -27 callsubr
          -558 -361 rmoveto
          -26 callsubr
          -27 -1990 rmoveto
          -80 callsubr
          endchar
        </CharString>
        <CharString name="Umacron">
          262 390.5 1608 rmoveto
          -41 callsubr
          339.5 -1782 rmoveto
          -80 callsubr
          endchar
        </CharString>
        <CharString name="Uogonek">
          262 695.5 -432.799804688 rmoveto
          -32 callsubr
          34.5 411.799804688 rmoveto
          -80 callsubr
          endchar
        </CharString>
        <CharString name="Uring">
          262 734 1608 rmoveto
          -36 callsubr
          93 vmoveto
          -35 callsubr
          -4 -1722 rmoveto
          -80 callsubr
          endchar
        </CharString>
        <CharString name="Utilde">
          262 390 1608 rmoveto
          -37 callsubr
          340 -1629 rmoveto
          -80 callsubr
          endchar
        </CharString>
        <CharString name="V">
          115 527 hmoveto
          274 0 526 1465 -276 0 rlineto
          -25 -71 -254 -761 -26 -75 -15 -40 -62 -220 -3 -13 -8 28 -64 218 -11 29 rrcurveto
          -310 905 -279 0 rlineto
          endchar
        </CharString>
        <CharString name="W">
          845 408 hmoveto
          -79 callsubr
          endchar
        </CharString>
        <CharString name="Wacute">
          845 944.5 1608 rmoveto
          -40 callsubr
          -707.5 -1991 rmoveto
          -79 callsubr
          endchar
        </CharString>
        <CharString name="Wcircumflex">
          845 667.5 1608 rmoveto
          -38 callsubr
          -509.5 -1991 rmoveto
          -79 callsubr
          endchar
        </CharString>
        <CharString name="Wdieresis">
          845 1134.5 1608 rmoveto
          -43 callsubr
          -421 -254 rmoveto
          -42 callsubr
          -305.5 -1862 rmoveto
          -79 callsubr
          endchar
        </CharString>
        <CharString name="Wgrave">
          845 940.5 1608 rmoveto
          -76 callsubr
          -201.5 -1991 rmoveto
          -79 callsubr
          endchar
        </CharString>
        <CharString name="X">
          131 -11 hmoveto
          297 0 378 570 370 -570 313 0 -511 746 rlineto
          485 719 -289 0 -355 -546 -345 546 -305 0 475 -715 rlineto
          endchar
        </CharString>
        <CharString name="Y">
          50 492 hmoveto
          -78 callsubr
          endchar
        </CharString>
        <CharString name="Yacute">
          50 549.5 1608 rmoveto
          -40 callsubr
          -228.5 -1991 rmoveto
          -78 callsubr
          endchar
        </CharString>
        <CharString name="Ycircumflex">
          50 272.5 1608 rmoveto
          -38 callsubr
          -30.5 -1991 rmoveto
          -78 callsubr
          endchar
        </CharString>
        <CharString name="Ydieresis">
          50 739.5 1608 rmoveto
          -43 callsubr
          -421 -254 rmoveto
          -42 callsubr
          173.5 -1862 rmoveto
          -78 callsubr
          endchar
        </CharString>
        <CharString name="Ygrave">
          50 545.5 1608 rmoveto
          -76 callsubr
          277.5 -1991 rmoveto
          -78 callsubr
          endchar
        </CharString>
        <CharString name="Z">
          3 62 hmoveto
          -77 callsubr
          endchar
        </CharString>
        <CharString name="Zacute">
          3 533.5 1608 rmoveto
          -40 callsubr
          -642.5 -1991 rmoveto
          -77 callsubr
          endchar
        </CharString>
        <CharString name="Zcaron">
          3 510 1608 rmoveto
          -30 callsubr
          -186 -1961 rmoveto
          -77 callsubr
          endchar
        </CharString>
        <CharString name="Zdotaccent">
          3 510.5 1608 rmoveto
          -31 callsubr
          -448.5 -1824 rmoveto
          -77 callsubr
          endchar
        </CharString>
        <CharString name="a">
          -64 494 165 rmoveto
          -75 callsubr
          -71 -186 rmoveto
          -74 callsubr
          endchar
        </CharString>
        <CharString name="aacute">
          -64 468.5 1248 rmoveto
          -40 callsubr
          -145.5 -1466 rmoveto
          -75 callsubr
          -71 -186 rmoveto
          -74 callsubr
          endchar
        </CharString>
        <CharString name="abreve">
          -64 546 1248 rmoveto
          -33 callsubr
          -52 -1083 rmoveto
          -75 callsubr
          -71 -186 rmoveto
          -74 callsubr
          endchar
        </CharString>
        <CharString name="acircumflex">
          -64 191.5 1248 rmoveto
          -38 callsubr
          52.5 -1466 rmoveto
          -75 callsubr
          -71 -186 rmoveto
          -74 callsubr
          endchar
        </CharString>
        <CharString name="acute">
          -587 191 1195 rmoveto
          -40 callsubr
          endchar
        </CharString>
        <CharString name="adieresis">
          -64 658.5 1248 rmoveto
          -43 callsubr
          -421 -254 rmoveto
          -42 callsubr
          256.5 -1337 rmoveto
          -75 callsubr
          -71 -186 rmoveto
          -74 callsubr
          endchar
        </CharString>
        <CharString name="ae">
          473 944 644 rmoveto
          16 230 129 70 118 0 144 0 30 -123 1 -107 rrcurveto
          -17 -2 -14 0 vhcurveto
          -931 -533 rmoveto
          -93 -50 55 100 hvcurveto
          0 109 102 26 199 24 5 0 80 11 6 0 1 -78 34 -102 11 -22 rrcurveto
          -86 -66 -105 -57 -104 0 rrcurveto
          -38 -172 rmoveto
          193 0 140 75 93 85 rrcurveto
          79 -97 114 -62 186 0 181 0 107 45 87 63 rrcurveto
          -72 162 rlineto
          -51 -39 -107 -42 -129 0 -185 1 -97 119 -9 212 98 8 381 27 36 2 101 4 56 24 0 60 0 270 -113 240 -291 0 -159 0 -130 -76 -72 -100 rrcurveto
          -39 114 -119 62 -167 0 -174 0 -120 -38 -95 -45 rrcurveto
          49 -180 rlineto
          57 24 138 53 129 0 148 -5 38 -66 0 -131 rrcurveto
          0 -117 -85 -7 rlineto
          -329 -36 -207 -28 0 -242 0 -192 131 -147 208 0 rrcurveto
          endchar
        </CharString>
        <CharString name="agrave">
          -64 464.5 1248 rmoveto
          -76 callsubr
          360.5 -1466 rmoveto
          -75 callsubr
          -71 -186 rmoveto
          -74 callsubr
          endchar
        </CharString>
        <CharString name="amacron">
          -64 203 1248 rmoveto
          -41 callsubr
          291 -1236 rmoveto
          -75 callsubr
          -71 -186 rmoveto
          -74 callsubr
          endchar
        </CharString>
        <CharString name="ampersand">
          230 571 924 rmoveto
          -65 67 -55 75 0 94 rrcurveto
          106 69 49 99 91 71 -47 -102 vhcurveto
          0 -121 -107 -66 -103 -55 rrcurveto
          16 -756 rmoveto
          -166 -132 81 177 hvcurveto
          0 144 102 65 117 66 37 -40 317 -345 37 -40 rrcurveto
          -82 -67 -115 -41 -115 0 rrcurveto
          -7 -191 rmoveto
          167 0 156 55 133 101 rrcurveto
          142 -149 rlineto
          13 4 184 45 13 4 rrcurveto
          -207 219 rlineto
          67 75 66 99 47 91 rrcurveto
          -170 113 rlineto
          -40 -78 -56 -89 -58 -63 rrcurveto
          -350 382 rlineto
          157 78 165 114 0 190 rrcurveto
          224 -208 93 -189 -203 -179 -106 -229 vhcurveto
          0 -131 81 -93 84 -95 rrcurveto
          -176 -94 -161 -114 0 -219 0 -303 248 -124 274 0 rrcurveto
          endchar
        </CharString>
        <CharString name="aogonek">
          -64 862 -422.799804688 rmoveto
          -32 callsubr
          -368 587.799804688 rmoveto
          -75 callsubr
          -71 -186 rmoveto
          -74 callsubr
          endchar
        </CharString>
        <CharString name="approxequal">
          106 223 516 rmoveto
          38 83 60 70 96 0 74 0 56 -24 66 -34 rrcurveto
          103 -51 75 -32 98 0 153 0 125 105 47 109 rrcurveto
          -81 118 rlineto
          -82 -101 -63 -40 -82 0 -61 0 -63 22 -88 43 rrcurveto
          -86 40 -94 32 -88 0 -156 0 -88 -93 -48 -121 rrcurveto
          89 -540 rmoveto
          38 82 61 71 96 0 74 0 55 -24 67 -34 rrcurveto
          103 -51 75 -32 98 0 154 0 123 105 48 109 rrcurveto
          -82 119 rlineto
          -82 -101 -63 -41 -82 0 -61 0 -67 27 -85 40 rrcurveto
          -82 37 -95 34 -90 0 -156 0 -87 -93 -49 -121 rrcurveto
          endchar
        </CharString>
        <CharString name="aring">
          -64 546.5 1248 rmoveto
          -36 callsubr
          93 vmoveto
          -35 callsubr
          -52.5 -1176 rmoveto
          -75 callsubr
          -71 -186 rmoveto
          -74 callsubr
          endchar
        </CharString>
        <CharString name="asciicircum">
          -52 36 549 rmoveto
          209 0 319 668 347 -668 209 0 -493 922 -129 0 rlineto
          endchar
        </CharString>
        <CharString name="asciitilde">
          91 207 471 rmoveto
          41 77 66 72 94 0 76 0 59 -25 75 -35 rrcurveto
          97 -44 73 -30 95 0 144 0 125 98 53 98 rrcurveto
          -71 135 rlineto
          -84 -94 -69 -42 -81 0 -61 0 -69 25 -89 39 rrcurveto
          -87 37 -90 29 -87 0 -150 0 -85 -89 -52 -106 rrcurveto
          endchar
        </CharString>
        <CharString name="asterisk">
          -102 375 562 rmoveto
          174 323 182 -323 rlineto
          13 8 176 98 13 8 -21 28 -214 264 -10 14 rrcurveto
          344 72 -61 208 -341 -129 35 371 -228 0 35 -371 -337 133 -64 -207 342 -77 -242 -306 rlineto
          endchar
        </CharString>
        <CharString name="at">
          493 752 312 rmoveto
          -87 -33 93 101 192 134 212 175 hvcurveto
          40 0 38 -4 35 -7 -7 -48 -8 -51 -10 -52 rrcurveto
          -41 -210 -79 -226 -157 0 rrcurveto
          139 -517 rmoveto
          238 0 179 76 138 113 rrcurveto
          -55 108 rlineto
          -152 -112 -177 -42 -173 0 rrcurveto
          -358 -299 223 417 269 190 408 470 338 247 -216 -334 hvcurveto
          -194 -118 -212 -144 -51 -27 17 72 vhcurveto
          0 115 66 255 39 210 -89 32 -109 32 -118 0 rrcurveto
          -277 -194 -253 -287 hvcurveto
          -189 106 -132 188 vhcurveto
          112 0 98 88 49 116 rrcurveto
          3 -159 78 -60 104 0 rrcurveto
          226 214 226 320 415 -321 283 -419 -474 -351 -346 -464 -483 338 -312 485 hvcurveto
          endchar
        </CharString>
        <CharString name="atilde">
          -64 202.5 1248 rmoveto
          -37 callsubr
          291.5 -1083 rmoveto
          -75 callsubr
          -71 -186 rmoveto
          -74 callsubr
          endchar
        </CharString>
        <CharString name="b">
          52 659 178 rmoveto
          -73 callsubr
          63 -199 rmoveto
          -72 callsubr
          endchar
        </CharString>
        <CharString name="backslash">
          -303 649 -60 rmoveto
          229 0 -617 1522 -231 0 rlineto
          endchar
        </CharString>
        <CharString name="bar">
          -447 278 -380 rmoveto
          203 1918 -203 hlineto
          endchar
        </CharString>
        <CharString name="braceleft">
          -420 703 -287 rmoveto
          201 vlineto
          -147 2 -27 41 0 131 rrcurveto
          272 vlineto
          0 141 -73 80 -139 29 147 55 64 65 1 138 rrcurveto
          269 vlineto
          0 130 28 42 146 2 rrcurveto
          200 vlineto
          -282 -144 -62 -228 hvcurveto
          -291 vlineto
          0 -157 -40 -53 -185 -1 rrcurveto
          -214 vlineto
          178 47 -58 -157 hvcurveto
          -277 vlineto
          -236 138 -64 288 vhcurveto
          endchar
        </CharString>
        <CharString name="braceright">
          -419 85 -287 rmoveto
          289 137 62 229 hvcurveto
          286 vlineto
          161 48 54 178 vhcurveto
          214 vlineto
          -185 1 -41 54 0 155 rrcurveto
          283 vlineto
          239 -139 60 -287 vhcurveto
          -200 vlineto
          147 -2 27 -41 0 -131 rrcurveto
          -269 vlineto
          1 -138 68 -74 143 -45 -139 -41 -73 -67 0 -143 rrcurveto
          -272 vlineto
          0 -133 -28 -39 -146 -2 rrcurveto
          endchar
        </CharString>
        <CharString name="bracketleft">
          -555 135 -266 rmoveto
          464 181 hlineto
          -212 1412 hlineto
          212 180 -464 hlineto
          endchar
        </CharString>
        <CharString name="bracketright">
          -555 52 -266 rmoveto
          464 1773 -464 -180 hlineto
          211 -1412 hlineto
          -211 hlineto
          endchar
        </CharString>
        <CharString name="breve">
          -496 352 1229 rmoveto
          -33 callsubr
          endchar
        </CharString>
        <CharString name="brokenbar">
          -389 306 820 rmoveto
          203 718 -203 hlineto
          -1917 vmoveto
          203 719 -203 hlineto
          endchar
        </CharString>
        <CharString name="bullet">
          -211 497 355 rmoveto
          206 153 149 195 192 -149 146 -204 -205 -155 -151 -194 -192 148 -145 206 hvcurveto
          endchar
        </CharString>
        <CharString name="c">
          -198 614 -21 rmoveto
          -71 callsubr
          endchar
        </CharString>
        <CharString name="cacute">
          -198 434.5 1248 rmoveto
          -40 callsubr
          8.5 -1652 rmoveto
          -71 callsubr
          endchar
        </CharString>
        <CharString name="caron">
          -434 302 1193 rmoveto
          -30 callsubr
          endchar
        </CharString>
        <CharString name="ccaron">
          -198 411 1248 rmoveto
          -30 callsubr
          465 -1622 rmoveto
          -71 callsubr
          endchar
        </CharString>
        <CharString name="ccedilla">
          -198 437 -389.299804688 rmoveto
          -39 callsubr
          54 -12.7001953125 rmoveto
          -71 callsubr
          endchar
        </CharString>
        <CharString name="ccircumflex">
          -198 157.5 1248 rmoveto
          -38 callsubr
          206.5 -1652 rmoveto
          -71 callsubr
          endchar
        </CharString>
        <CharString name="cdotaccent">
          -198 411.5 1248 rmoveto
          -31 callsubr
          202.5 -1485 rmoveto
          -71 callsubr
          endchar
        </CharString>
        <CharString name="cedilla">
          -617 62 -357 rmoveto
          -39 callsubr
          endchar
        </CharString>
        <CharString name="cent">
          -124 573 247 rmoveto
          -149 29 -95 125 0 227 0 221 104 115 140 25 rrcurveto
          -1191 vmoveto
          101 256 hlineto
          107 7 85 32 78 55 rrcurveto
          -52 175 rlineto
          -54 -38 -76 -36 -88 -7 rrcurveto
          750 vlineto
          82 -8 86 -35 47 -33 rrcurveto
          45 174 rlineto
          -68 52 -82 30 -110 9 rrcurveto
          221 -101 -218 vlineto
          -268 -17 -222 -187 -1 -344 0 -353 198 -207 293 -22 rrcurveto
          endchar
        </CharString>
        <CharString name="circumflex">
          -431 47 1163 rmoveto
          -38 callsubr
          endchar
        </CharString>
        <CharString name="colon">
          -746 100 841 rmoveto
          265 265 -265 hlineto
          -1112 vmoveto
          265 265 -265 hlineto
          endchar
        </CharString>
        <CharString name="comma">
          -698 64 -283 rmoveto
          -107 callsubr
          endchar
        </CharString>
        <CharString name="commaaccentcomb">
          -652 144 -648 rmoveto
          -29 callsubr
          -6 648 rmoveto
          0 vmoveto
          endchar
        </CharString>
        <CharString name="copyright">
          537 867 -22 rmoveto
          423 359 315 448 447 -360 317 -423 -420 -357 -317 -447 -448 358 -315 420 hvcurveto
          100 vmoveto
          -384 -278 298 366 364 278 298 383 387 280 -298 -365 -366 -279 -297 -387 hvcurveto
          -13 176 rmoveto
          121 0 106 29 80 53 rrcurveto
          -44 104 rlineto
          -73 -42 -97 -24 -78 0 rrcurveto
          -203 -129 147 222 223 127 152 200 hvcurveto
          78 0 94 -22 75 -44 rrcurveto
          49 104 rlineto
          -82 55 -104 27 -121 0 rrcurveto
          -274 -187 -219 -276 -283 196 -206 266 hvcurveto
          endchar
        </CharString>
        <CharString name="currency">
          -44 581 455 rmoveto
          -156 -126 124 153 152 127 126 155 156 127 -125 -153 -153 -126 -124 -157 hvcurveto
          439 -226 rmoveto
          89 94 -181 172 rlineto
          48 69 26 80 0 88 0 87 -27 81 -48 69 rrcurveto
          184 173 -91 94 -186 -175 rlineto
          -71 56 -86 32 -96 0 -94 0 -87 -31 -71 -55 rrcurveto
          -183 173 -95 -92 186 -175 rlineto
          -49 -70 -27 -80 0 -87 0 -87 27 -81 49 -69 rrcurveto
          -185 -173 94 -92 181 171 rlineto
          69 -54 87 -30 98 0 95 0 86 31 72 54 rrcurveto
          endchar
        </CharString>
        <CharString name="d">
          53 604 178 rmoveto
          -70 callsubr
          -62 -199 rmoveto
          -69 callsubr
          endchar
        </CharString>
        <CharString name="dagger">
          -227 384 115 rmoveto
          188 855 344 169 -334 347 -198 -347 -317 -169 317 hlineto
          endchar
        </CharString>
        <CharString name="daggerdbl">
          -210 403 -27 rmoveto
          200 394 272 162 -272 hlineto
          -1 431 277 0 0 163 -277 0 0 354 -200 0 0 -354 -273 0 0 -163 273 0 1 -431 -277 0 0 -162 277 0 rlineto
          endchar
        </CharString>
        <CharString name="dcroat">
          29 596 173 rmoveto
          -155 -128 115 267 274 131 112 152 157 125 -115 -272 hvcurveto
          -275 -123 -106 -159 vhcurveto
          -42 -194 rmoveto
          159 0 105 76 56 100 rrcurveto
          10 -155 245 0 0 1209 106 0 0 142 -106 0 0 164 -255 -18 0 -146 -285 0 0 -142 285 0 0 -242 rlineto
          -44 87 -105 81 -175 0 -308 0 -176 -263 0 -308 0 -332 181 -248 307 -5 rrcurveto
          endchar
        </CharString>
        <CharString name="degree">
          -356 427 870 rmoveto
          201 114 147 150 153 -117 135 -198 -200 -116 -135 -153 -152 114 -145 202 hvcurveto
          1 129 rmoveto
          -84 -81 61 105 101 81 60 84 83 80 -59 -102 -105 -80 -61 -83 hvcurveto
          endchar
        </CharString>
        <CharString name="dieresis">
          -434 499 1236 rmoveto
          -43 callsubr
          -421 -254 rmoveto
          -42 callsubr
          endchar
        </CharString>
        <CharString name="divide">
          250 590 875 rmoveto
          284 259 -284 hlineto
          -412 -645 rmoveto
          1096 187 -1096 hlineto
          412 -655 rmoveto
          275 260 -275 hlineto
          endchar
        </CharString>
        <CharString name="dollar">
          -12 656 208 rmoveto
          398 vlineto
          5 -2 19 -5 6 -3 101 -34 54 -58 0 -88 0 -116 -62 -72 -123 -20 rrcurveto
          -98 703 rmoveto
          -13 4 -32 10 -11 4 -76 23 -45 53 0 83 5 112 61 53 111 14 rrcurveto
          -1479 vmoveto
          98 196 hlineto
          278 25 182 147 0 258 0 237 -111 114 -263 86 -22 7 -46 13 -18 7 rrcurveto
          393 vlineto
          122 -5 121 -40 94 -42 rrcurveto
          82 198 rlineto
          -122 69 -137 35 -160 5 rrcurveto
          152 -98 -154 vlineto
          -271 -18 -186 -142 0 -253 0 -206 116 -119 179 -63 33 -13 85 -26 44 -13 rrcurveto
          -434 vlineto
          -139 4 -145 48 -114 63 rrcurveto
          -66 -215 rlineto
          123 -71 149 -49 190 -2 rrcurveto
          endchar
        </CharString>
        <CharString name="dotaccent">
          -667 157 1249 rmoveto
          -31 callsubr
          endchar
        </CharString>
        <CharString name="dotlessi">
          -658 129 hmoveto
          -34 callsubr
          endchar
        </CharString>
        <CharString name="e">
          -49 350 661 rmoveto
          -68 callsubr
          -189 -682 rmoveto
          -67 callsubr
          endchar
        </CharString>
        <CharString name="eacute">
          -49 501.5 1248 rmoveto
          -40 callsubr
          -322.5 -970 rmoveto
          -68 callsubr
          -189 -682 rmoveto
          -67 callsubr
          endchar
        </CharString>
        <CharString name="ecaron">
          -49 478 1248 rmoveto
          -30 callsubr
          134 -940 rmoveto
          -68 callsubr
          -189 -682 rmoveto
          -67 callsubr
          endchar
        </CharString>
        <CharString name="ecircumflex">
          -49 224.5 1248 rmoveto
          -38 callsubr
          -124.5 -970 rmoveto
          -68 callsubr
          -189 -682 rmoveto
          -67 callsubr
          endchar
        </CharString>
        <CharString name="edieresis">
          -49 691.5 1248 rmoveto
          -43 callsubr
          -421 -254 rmoveto
          -42 callsubr
          79.5 -841 rmoveto
          -68 callsubr
          -189 -682 rmoveto
          -67 callsubr
          endchar
        </CharString>
        <CharString name="edotaccent">
          -49 478.5 1248 rmoveto
          -31 callsubr
          -128.5 -803 rmoveto
          -68 callsubr
          -189 -682 rmoveto
          -67 callsubr
          endchar
        </CharString>
        <CharString name="egrave">
          -49 497.5 1248 rmoveto
          -76 callsubr
          183.5 -970 rmoveto
          -68 callsubr
          -189 -682 rmoveto
          -67 callsubr
          endchar
        </CharString>
        <CharString name="eight">
          -55 578 835 rmoveto
          -156 35 -100 92 0 148 rrcurveto
          122 112 78 144 145 110 -78 -122 vhcurveto
          0 -147 -95 -91 -160 -37 rrcurveto
          -674 vmoveto
          -166 -104 84 148 hvcurveto
          0 155 115 92 155 39 149 -38 119 -92 0 -155 rrcurveto
          -148 -100 -85 -168 vhcurveto
          -182 vmoveto
          279 233 140 269 hvcurveto
          0 187 -95 121 -146 71 rrcurveto
          125 66 89 105 0 173 rrcurveto
          251 -215 128 -270 -269 -217 -127 -252 vhcurveto
          0 -175 95 -104 136 -65 rrcurveto
          -153 -68 -106 -120 0 -190 rrcurveto
          -268 234 -142 280 vhcurveto
          endchar
        </CharString>
        <CharString name="emacron">
          -49 236 1248 rmoveto
          -41 callsubr
          114 -740 rmoveto
          -68 callsubr
          -189 -682 rmoveto
          -67 callsubr
          endchar
        </CharString>
        <CharString name="emdash">
          945 30 461 rmoveto
          2086 185 -2086 hlineto
          endchar
        </CharString>
        <CharString name="endash">
          65 89 461 rmoveto
          1099 185 -1099 hlineto
          endchar
        </CharString>
        <CharString name="eogonek">
          -49 703 -432.799804688 rmoveto
          -32 callsubr
          -353 1093.79980469 rmoveto
          -68 callsubr
          -189 -682 rmoveto
          -67 callsubr
          endchar
        </CharString>
        <CharString name="equal">
          -4 93 754 rmoveto
          1018 193 -1018 hlineto
          -590 vmoveto
          1018 191 -1018 hlineto
          endchar
        </CharString>
        <CharString name="eth">
          20 625 178 rmoveto
          -193 -109 126 174 178 101 118 195 196 104 -126 -176 -176 -103 -118 -191 hvcurveto
          1 -199 rmoveto
          364 169 227 275 hvcurveto
          0 126 -37 128 -75 123 -83 135 -127 153 -121 134 rrcurveto
          211 84 -69 132 -250 -100 -119 113 -298 0 203 -200 -205 -83 67 -134 249 101 rlineto
          40 -41 174 -207 11 -21 -42 13 -49 16 -58 0 rrcurveto
          -302 -195 -180 -306 -289 217 -199 325 hvcurveto
          endchar
        </CharString>
        <CharString name="exclam">
          -760 224 -18 rmoveto
          87 66 70 82 83 -66 72 -87 -88 -67 -72 -83 hvcurveto
          -82 67 -70 88 vhcurveto
          -31 467 rmoveto
          66 0 rlineto
          90 713 0 296 -241 0 0 -296 rlineto
          endchar
        </CharString>
        <CharString name="exclamdown">
          -760 222 1122 rmoveto
          -87 -66 -70 -82 -83 66 -72 87 88 67 72 83 hvcurveto
          82 -67 70 -88 vhcurveto
          31 -467 rmoveto
          -66 0 rlineto
          -90 -713 0 -296 241 0 0 296 rlineto
          endchar
        </CharString>
        <CharString name="f">
          -446 203 hmoveto
          -66 callsubr
          endchar
        </CharString>
        <CharString name="five">
          -68 542 -21 rmoveto
          332 183 199 290 277 -179 192 -270 hvcurveto
          -60 0 -63 -14 -62 -33 1 37 12 289 1 36 rrcurveto
          549 0 15 206 -796 0 -38 -798 175 -34 rlineto
          67 74 79 34 76 0 rrcurveto
          138 97 -103 -160 -160 -90 -122 -194 hvcurveto
          -168 0 -146 105 -16 13 rrcurveto
          -80 -188 rlineto
          22 -20 196 -120 219 0 rrcurveto
          endchar
        </CharString>
        <CharString name="fj">
          125 203 hmoveto
          262 925 503 -941 hlineto
          -165 -19 -52 -164 vhcurveto
          -58 0 29 -194 59 0 rlineto
          350 65 145 308 hvcurveto
          1073 -765 75 vlineto
          125 42 50 113 vhcurveto
          38 0 46 -5 45 -6 rrcurveto
          23 195 rlineto
          -66 12 -71 7 -67 0 -276 0 -88 -133 -1 -259 rrcurveto
          0 -61 rlineto
          -157 -20 -17 -154 174 0 rlineto
          765 334 rmoveto
          -60 callsubr
          endchar
        </CharString>
        <CharString name="florin">
          -151 157 -336 rmoveto
          276 0 61 249 43 215 rrcurveto
          130 665 213 0 13 175 -194 0 32 168 rlineto
          18 93 28 46 98 0 34 0 83 -29 9 -4 rrcurveto
          11 201 rlineto
          -10 3 -100 22 -51 0 -243 0 -88 -175 -28 -195 rrcurveto
          -19 -130 -178 0 -13 -173 157 0 rlineto
          -51 -252 -41 -272 -63 -239 -24 -96 -31 -86 -84 0 -19 0 -69 23 -7 2 rrcurveto
          -17 -189 rlineto
          9 -2 84 -20 31 0 rrcurveto
          endchar
        </CharString>
        <CharString name="four">
          47 352 522 rmoveto
          401 680 0 -680 rlineto
          -522 vmoveto
          265 325 167 hlineto
          13 198 -180 0 0 935 -333 0 -593 -955 0 -178 661 0 rlineto
          endchar
        </CharString>
        <CharString name="fraction">
          -27 41 hmoveto
          198 0 898 1471 -196 0 rlineto
          endchar
        </CharString>
        <CharString name="g">
          61 616 183 rmoveto
          -65 callsubr
          -263 -675 rmoveto
          -64 callsubr
          endchar
        </CharString>
        <CharString name="gbreve">
          61 608.5 1248 rmoveto
          -33 callsubr
          7.5 -1065 rmoveto
          -65 callsubr
          -263 -675 rmoveto
          -64 callsubr
          endchar
        </CharString>
        <CharString name="gcircumflex">
          61 254 1248 rmoveto
          -38 callsubr
          112 -1448 rmoveto
          -65 callsubr
          -263 -675 rmoveto
          -64 callsubr
          endchar
        </CharString>
        <CharString name="gcommaaccent">
          62 445 1213 rmoveto
          221 0 109 517 -165 0 rlineto
          6 -1547 rmoveto
          -65 callsubr
          -263 -675 rmoveto
          -64 callsubr
          endchar
        </CharString>
        <CharString name="gdotaccent">
          61 508 1248 rmoveto
          -31 callsubr
          108 -1281 rmoveto
          -65 callsubr
          -263 -675 rmoveto
          -64 callsubr
          endchar
        </CharString>
        <CharString name="germandbls">
          53 108 hmoveto
          255 1016 hlineto
          172 39 111 180 117 86 -56 -99 vhcurveto
          0 -118 -119 -53 -93 -70 -37 -28 -34 -38 0 -51 0 -59 46 -39 41 -25 rrcurveto
          143 -88 211 -68 0 -162 rrcurveto
          -101 -63 -65 -113 vhcurveto
          -240 hlineto
          0 -24 -179 -1 vhcurveto
          292 hlineto
          232 176 107 237 hvcurveto
          0 248 -271 108 -176 99 rrcurveto
          126 78 154 88 0 179 rrcurveto
          233 -209 113 -243 -309 -166 -173 -293 vhcurveto
          endchar
        </CharString>
        <CharString name="grave">
          -692 323 1195 rmoveto
          -76 callsubr
          endchar
        </CharString>
        <CharString name="greater">
          -10 119 197 rmoveto
          967 448 0 124 -967 484 0 -206 704 -335 -704 -309 rlineto
          endchar
        </CharString>
        <CharString name="greaterequal">
          18 145 2 rmoveto
          949 155 hlineto
          -949 1 rlineto
          6 67 rmoveto
          939 461 0 115 -938 473 0 -190 698 -341 -699 -328 rlineto
          endchar
        </CharString>
        <CharString name="guillemotleft">
          -123 812 136 rmoveto
          199 54 -270 372 274 372 -201 53 -325 -429 rlineto
          -101 -422 rmoveto
          205 54 -275 372 280 372 -207 53 -307 -398 -10 -43 rlineto
          endchar
        </CharString>
        <CharString name="guillemotright">
          -38 749 136 rmoveto
          322 429 -318 422 -203 -53 272 -372 -277 -372 rlineto
          -231 -54 rmoveto
          326 429 -324 422 -200 -53 271 -372 -274 -372 rlineto
          endchar
        </CharString>
        <CharString name="guilsinglleft">
          -622 321 174 rmoveto
          201 0 -254 394 261 397 -202 0 -272 -397 rlineto
          endchar
        </CharString>
        <CharString name="guilsinglright">
          -622 56 174 rmoveto
          201 0 274 395 -268 396 -200 0 253 -396 rlineto
          endchar
        </CharString>
        <CharString name="h">
          47 133 hmoveto
          -63 callsubr
          endchar
        </CharString>
        <CharString name="hbar">
          -17 107 hmoveto
          254 745 hlineto
          49 96 116 86 134 0 rrcurveto
          148 32 -89 -184 hvcurveto
          -654 254 667 vlineto
          334 -162 119 -211 vhcurveto
          -148 0 -121 -51 -91 -96 rrcurveto
          252 298 136 -298 154 vlineto
          -254 -19 0 -135 -102 0 0 -136 102 0 rlineto
          endchar
        </CharString>
        <CharString name="hcircumflex">
          47 276 1643 rmoveto
          -38 callsubr
          -393 -2026 rmoveto
          -63 callsubr
          endchar
        </CharString>
        <CharString name="hungarumlaut">
          -224 461 1155 rmoveto
          -27 callsubr
          -558 -361 rmoveto
          -26 callsubr
          endchar
        </CharString>
        <CharString name="hyphen">
          -529 70 445 rmoveto
          536 204 -536 hlineto
          endchar
        </CharString>
        <CharString name="i">
          -665 139 1259 rmoveto
          -62 callsubr
          -1483 vmoveto
          -61 callsubr
          endchar
        </CharString>
        <CharString name="iacute">
          -658 179 1248 rmoveto
          -40 callsubr
          -221 -1631 rmoveto
          -34 callsubr
          endchar
        </CharString>
        <CharString name="ibreve">
          -658 256.5 1248 rmoveto
          -33 callsubr
          -127.5 -1248 rmoveto
          -34 callsubr
          endchar
        </CharString>
        <CharString name="icircumflex">
          -658 -98 1248 rmoveto
          -38 callsubr
          -23 -1631 rmoveto
          -34 callsubr
          endchar
        </CharString>
        <CharString name="idieresis">
          -658 369 1248 rmoveto
          -43 callsubr
          -421 -254 rmoveto
          -42 callsubr
          181 -1502 rmoveto
          -34 callsubr
          endchar
        </CharString>
        <CharString name="igrave">
          -658 175 1248 rmoveto
          -76 callsubr
          285 -1631 rmoveto
          -34 callsubr
          endchar
        </CharString>
        <CharString name="ij">
          -146 697 1259 rmoveto
          -60 callsubr
          -212 -1910 rmoveto
          -59 callsubr
          -317 1492 rmoveto
          -62 callsubr
          -1483 vmoveto
          -61 callsubr
          endchar
        </CharString>
        <CharString name="imacron">
          -658 -86.5 1248 rmoveto
          -41 callsubr
          215.5 -1401 rmoveto
          -34 callsubr
          endchar
        </CharString>
        <CharString name="infinity">
          489 469 407 rmoveto
          -123 -79 96 118 122 69 92 125 hvcurveto
          136 0 87 -105 72 -112 -70 -102 -89 -109 -128 0 rrcurveto
          763 hmoveto
          -129 0 -77 99 -84 115 68 101 90 113 129 0 114 0 72 -78 4 -110 0 -100 -32 -140 -155 0 rrcurveto
          -762 -166 rmoveto
          177 0 111 122 92 125 98 -134 110 -113 171 0 rrcurveto
          209 157 163 220 220 -144 152 -221 hvcurveto
          -182 0 -108 -121 -90 -125 -88 119 -109 126 -166 0 rrcurveto
          -232 -154 -150 -204 -220 146 -180 223 hvcurveto
          endchar
        </CharString>
        <CharString name="integral">
          -446 251 -407 rmoveto
          253 84 178 220 hvcurveto
          1303 vlineto
          133 20 61 114 vhcurveto
          34 0 89 -25 6 -2 rrcurveto
          -3 184 rlineto
          -10 3 -84 22 -56 0 rrcurveto
          -254 -87 -178 -220 hvcurveto
          -1301 vlineto
          -133 -18 -62 -114 vhcurveto
          -34 0 -88 24 -6 3 rrcurveto
          3 -183 rlineto
          10 -3 86 -24 55 0 rrcurveto
          endchar
        </CharString>
        <CharString name="iogonek">
          -665 232.5 -411.799804688 rmoveto
          -32 callsubr
          -93.5 1670.79980469 rmoveto
          -62 callsubr
          -1483 vmoveto
          -61 callsubr
          endchar
        </CharString>
        <CharString name="itilde">
          -658 -87 1248 rmoveto
          -37 callsubr
          216 -1248 rmoveto
          -34 callsubr
          endchar
        </CharString>
        <CharString name="j">
          -679 164 1259 rmoveto
          -60 callsubr
          -212 -1910 rmoveto
          -59 callsubr
          endchar
        </CharString>
        <CharString name="jcircumflex">
          -679 -75 1248 rmoveto
          -38 callsubr
          -213 -1995 rmoveto
          -28 callsubr
          endchar
        </CharString>
        <CharString name="k">
          -33 133 hmoveto
          -58 callsubr
          endchar
        </CharString>
        <CharString name="kcommaaccent">
          -33 528 -620 rmoveto
          -29 callsubr
          -6 648 rmoveto
          0 vmoveto
          -525 -28 rmoveto
          -58 callsubr
          endchar
        </CharString>
        <CharString name="kgreenlandic">
          -82 115 hmoveto
          249 458 hlineto
          64 36 408 -494 315 0 rlineto
          -41 46 -414 504 -49 46 rrcurveto
          459 504 -313 0 -429 -466 0 466 -249 0 rlineto
          endchar
        </CharString>
        <CharString name="l">
          -506 518 -15 rmoveto
          -57 callsubr
          endchar
        </CharString>
        <CharString name="lacute">
          -506 342 1643 rmoveto
          -40 callsubr
          5 -2041 rmoveto
          -57 callsubr
          endchar
        </CharString>
        <CharString name="lcommaaccent">
          -506 289.5 -635 rmoveto
          -29 callsubr
          -6 648 rmoveto
          0 vmoveto
          98.5 -28 rmoveto
          -57 callsubr
          endchar
        </CharString>
        <CharString name="less">
          -10 1081 196 rmoveto
          0 205 -704 311 705 333 0 206 -967 -482 0 -124 rlineto
          endchar
        </CharString>
        <CharString name="lessequal">
          18 138 2 rmoveto
          951 156 hlineto
          -951 -1 rlineto
          944 68 rmoveto
          0 190 -697 329 697 339 0 190 -937 -472 0 -116 rlineto
          endchar
        </CharString>
        <CharString name="logicalnot">
          81 961 247 rmoveto
          191 587 -1020 -193 829 hlineto
          endchar
        </CharString>
        <CharString name="lozenge">
          22 611 150 rmoveto
          -105 191 -106 194 -105 195 105 189 113 190 108 198 103 -192 109 -193 104 -193 -105 -190 -113 -191 -108 -198 rrcurveto
          -64 -197 rmoveto
          128 0 460 776 -451 776 -130 0 -456 -777 rlineto
          endchar
        </CharString>
        <CharString name="lslash">
          -527 516 -15 rmoveto
          46 0 106 12 13 2 rrcurveto
          -16 189 rlineto
          -12 -1 -79 -6 -12 0 rrcurveto
          -157 -8 61 196 hvcurveto
          0 408 158 97 0 182 -158 -97 0 487 -255 -20 0 -619 -112 -68 0 -183 112 67 0 -233 rlineto
          -324 56 -150 318 vhcurveto
          endchar
        </CharString>
        <CharString name="m">
          705 133 hmoveto
          -56 callsubr
          endchar
        </CharString>
        <CharString name="macron">
          -294 118 1377 rmoveto
          -41 callsubr
          endchar
        </CharString>
        <CharString name="middot">
          -738 150 561 rmoveto
          198 168 -198 vlineto
          endchar
        </CharString>
        <CharString name="multiply">
          189 412 147 rmoveto
          301 294 300 -294 136 137 rlineto
          -73 73 -145 154 -74 72 rrcurveto
          292 298 -136 139 -300 -295 -301 295 -134 -138 291 -299 -291 -300 rlineto
          endchar
        </CharString>
        <CharString name="n">
          48 133 hmoveto
          -55 callsubr
          endchar
        </CharString>
        <CharString name="nacute">
          48 553.5 1248 rmoveto
          -40 callsubr
          -591.5 -1631 rmoveto
          -55 callsubr
          endchar
        </CharString>
        <CharString name="ncaron">
          48 530 1248 rmoveto
          -30 callsubr
          -135 -1601 rmoveto
          -55 callsubr
          endchar
        </CharString>
        <CharString name="ncommaaccent">
          48 501 -620 rmoveto
          -29 callsubr
          -6 648 rmoveto
          0 vmoveto
          -498 -28 rmoveto
          -55 callsubr
          endchar
        </CharString>
        <CharString name="nine">
          9 624 739 rmoveto
          -189 -90 112 168 160 104 112 180 175 92 -107 -160 hvcurveto
          -164 -77 -121 -195 vhcurveto
          -381 -739 rmoveto
          319 hlineto
          0 0 390 518 24 32 100 137 89 135 0 187 rrcurveto
          293 -225 188 -324 vhcurveto
          -313 -221 -182 -288 -275 200 -190 286 hvcurveto
          47 0 31 9 41 14 rrcurveto
          endchar
        </CharString>
        <CharString name="notequal">
          107 462 44 rmoveto
          139 268 579 0 -13 167 -485 0 123 243 375 0 -14 169 -281 0 119 239 rlineto
          -2 -163 22 0 hvcurveto
          -137 -260 -560 0 12 -169 470 0 -121 -243 -359 0 10 -167 267 0 -122 -245 rlineto
          endchar
        </CharString>
        <CharString name="ntilde">
          48 287.5 1248 rmoveto
          -37 callsubr
          -154.5 -1248 rmoveto
          -55 callsubr
          endchar
        </CharString>
        <CharString name="numbersign">
          -14 478 583 rmoveto
          62 316 193 0 -61 -316 rlineto
          -494 -598 rmoveto
          189 0 79 419 190 0 rlineto
          -79 -419 196 0 80 419 215 0 10 179 -195 0 60 316 202 0 12 178 -181 0 75 381 -190 0 -74 -381 -193 0 rlineto
          76 381 -195 0 -80 -381 -236 0 -8 -179 212 0 -55 -315 -227 0 -8 -179 202 0 rlineto
          endchar
        </CharString>
        <CharString name="o">
          16 605 -21 rmoveto
          -54 callsubr
          7 199 rmoveto
          -53 callsubr
          endchar
        </CharString>
        <CharString name="oacute">
          16 533.5 1248 rmoveto
          -40 callsubr
          -99.5 -1652 rmoveto
          -54 callsubr
          7 199 rmoveto
          -53 callsubr
          endchar
        </CharString>
        <CharString name="obreve">
          16 611 1248 rmoveto
          -33 callsubr
          -6 -1269 rmoveto
          -54 callsubr
          7 199 rmoveto
          -53 callsubr
          endchar
        </CharString>
        <CharString name="ocircumflex">
          16 256.5 1248 rmoveto
          -38 callsubr
          98.5 -1652 rmoveto
          -54 callsubr
          7 199 rmoveto
          -53 callsubr
          endchar
        </CharString>
        <CharString name="odieresis">
          16 723.5 1248 rmoveto
          -43 callsubr
          -421 -254 rmoveto
          -42 callsubr
          302.5 -1523 rmoveto
          -54 callsubr
          7 199 rmoveto
          -53 callsubr
          endchar
        </CharString>
        <CharString name="oe">
          674 1113 646 rmoveto
          16 224 123 72 112 0 145 0 78 -92 1 -194 rrcurveto
          -10 vlineto
          -993 -489 rmoveto
          -171 -108 153 241 246 106 145 172 173 108 -136 -254 -246 -110 -149 -170 hvcurveto
          -178 vmoveto
          187 0 137 82 71 116 74 -126 142 -72 204 0 181 0 109 54 94 73 rrcurveto
          -72 155 rlineto
          -68 -52 -97 -51 -140 0 -191 0 -112 125 -4 217 rrcurveto
          709 hlineto
          0 5 2 57 0 25 0 300 -126 233 -315 0 -180 -2 -135 -67 -73 -124 -76 117 -132 76 -188 0 rrcurveto
          -358 -169 -246 -322 -312 168 -261 358 hvcurveto
          endchar
        </CharString>
        <CharString name="ogonek">
          -629 321 -392 rmoveto
          -32 callsubr
          endchar
        </CharString>
        <CharString name="ograve">
          16 529.5 1248 rmoveto
          -76 callsubr
          406.5 -1652 rmoveto
          -54 callsubr
          7 199 rmoveto
          -53 callsubr
          endchar
        </CharString>
        <CharString name="ohungarumlaut">
          16 699.5 1248 rmoveto
          -27 callsubr
          -558 -361 rmoveto
          -26 callsubr
          -29.5 -1630 rmoveto
          -54 callsubr
          7 199 rmoveto
          -53 callsubr
          endchar
        </CharString>
        <CharString name="omacron">
          16 268 1248 rmoveto
          -41 callsubr
          337 -1422 rmoveto
          -54 callsubr
          7 199 rmoveto
          -53 callsubr
          endchar
        </CharString>
        <CharString name="one">
          -520 303 1 rmoveto
          253 1458 -220 hlineto
          -20 -14 -251 -125 -22 -10 rrcurveto
          -200 vlineto
          18 5 222 92 20 13 rrcurveto
          endchar
        </CharString>
        <CharString name="onehalf">
          599 310 hmoveto
          200 0 1019 1471 -198 0 rlineto
          -195 -1500 rmoveto
          557 0 16 134 -335 0 rlineto
          193 160 143 103 0 193 0 174 -138 100 -148 0 -129 0 -110 -43 -59 -88 rrcurveto
          66 -117 rlineto
          50 66 87 31 73 0 67 0 73 -45 0 -84 0 -144 -206 -135 -199 -169 rrcurveto
          -1012 494 rmoveto
          474 132 -141 751 -170 hlineto
          -10 -10 -156 -90 -16 -8 rrcurveto
          -148 vlineto
          11 6 141 81 9 6 rrcurveto
          -588 -142 vlineto
          endchar
        </CharString>
        <CharString name="onequarter">
          525 1176 318 rmoveto
          211 328 rlineto
          -1 -7 0 -321 0 0 rrcurveto
          -1081 -318 rmoveto
          201 0 1015 1471 -194 0 rlineto
          61 -1461 rmoveto
          157 0 1 172 118 0 -2 136 -115 0 0 547 -175 0 -387 -541 0 -142 403 0 rlineto
          -1284 419 rmoveto
          474 148 hlineto
          -141 735 -143 hlineto
          -10 -10 -183 -90 -16 -8 rrcurveto
          -148 vlineto
          11 6 141 64 9 6 rrcurveto
          -555 -142 vlineto
          endchar
        </CharString>
        <CharString name="ordfeminine">
          -449 317 878 rmoveto
          -48 -38 30 60 hvcurveto
          0 98 110 18 165 22 rrcurveto
          -111 vlineto
          -50 -74 -71 -43 -68 0 rrcurveto
          -205 -342 rmoveto
          561 120 -561 hlineto
          187 94 rmoveto
          81 0 95 40 43 59 rrcurveto
          17 -85 135 0 rlineto
          -1 23 0 98 0 4 rrcurveto
          379 vlineto
          183 -123 63 -147 vhcurveto
          -105 0 -111 -28 -92 -50 rrcurveto
          42 -110 rlineto
          100 41 84 17 65 0 85 0 38 -38 1 -103 rrcurveto
          -32 vlineto
          -184 -21 -247 -16 0 -211 0 -140 103 -73 121 0 rrcurveto
          endchar
        </CharString>
        <CharString name="ordmasculine">
          -341 439 744 rmoveto
          227 137 162 221 225 -134 160 -231 -229 -140 -158 -223 -228 134 -159 236 hvcurveto
          155 vmoveto
          -136 -58 94 136 130 59 99 131 134 60 -97 -136 -130 -59 -96 -131 hvcurveto
          endchar
        </CharString>
        <CharString name="oslash">
          -13 599 163 rmoveto
          -44 0 -39 8 -34 17 rrcurveto
          301 679 rlineto
          63 -65 32 -109 0 -142 0 -244 -98 -144 -181 0 rrcurveto
          -179 68 rmoveto
          -67 65 -35 110 0 145 0 248 101 141 179 0 47 0 41 -9 35 -18 rrcurveto
          -419 -1128 rmoveto
          101 229 rlineto
          57 -20 65 -10 70 0 347 0 183 236 0 332 0 235 -87 183 -168 89 rrcurveto
          93 187 -69 23 -94 -180 rlineto
          -59 19 -66 11 -74 0 -345 0 -185 -231 0 -338 0 -234 92 -186 173 -89 rrcurveto
          -96 -222 rlineto
          endchar
        </CharString>
        <CharString name="otilde">
          16 267.5 1248 rmoveto
          -37 callsubr
          337.5 -1269 rmoveto
          -54 callsubr
          7 199 rmoveto
          -53 callsubr
          endchar
        </CharString>
        <CharString name="p">
          50 661 179 rmoveto
          -52 callsubr
          -528 -636 rmoveto
          -51 callsubr
          endchar
        </CharString>
        <CharString name="paragraph">
          -5 419 -150 rmoveto
          194 -1 0 1466 165 0 0 -1466 166 0 0 1466 82 0 0 171 -419 0 rlineto
          -299 -230 -90 -252 hvcurveto
          0 -192 134 -153 207 -17 rrcurveto
          endchar
        </CharString>
        <CharString name="parenleft">
          -556 376 -276 rmoveto
          234 hlineto
          -109 155 -160 368 0 352 0 357 157 370 113 162 rrcurveto
          -236 hlineto
          -169 -237 -113 -299 0 -355 0 -350 114 -292 169 -231 rrcurveto
          endchar
        </CharString>
        <CharString name="parenright">
          -556 41 -276 rmoveto
          233 hlineto
          168 230 116 292 0 351 0 353 -114 300 -169 238 rrcurveto
          -235 hlineto
          112 -162 157 -370 0 -357 0 -353 -160 -367 -108 -155 rrcurveto
          endchar
        </CharString>
        <CharString name="partialdiff">
          -32 504 158 rmoveto
          -142 -69 118 164 222 123 205 198 hvcurveto
          129 0 77 -90 34 -103 -27 -238 -103 -278 -220 0 rrcurveto
          -5 -183 rmoveto
          411 170 469 426 394 -123 306 -361 hvcurveto
          -135 0 -101 -51 -87 -53 rrcurveto
          15 -193 rlineto
          75 54 93 62 116 0 208 0 86 -187 4 -247 0 -7 1 -26 0 -5 -33 43 -108 87 -140 0 rrcurveto
          -310 -194 -283 -322 -264 137 -203 276 hvcurveto
          endchar
        </CharString>
        <CharString name="percent">
          584 1379 -17 rmoveto
          229 133 175 218 221 -123 169 -247 -264 -99 -160 -234 hvcurveto
          -217 135 -172 236 vhcurveto
          3 159 rmoveto
          -127 -57 98 132 131 34 105 138 134 59 -100 -131 -131 -55 -104 -126 hvcurveto
          -1075 -174 rmoveto
          213 0 908 1481 -220 1 rlineto
          -804 -773 rmoveto
          226 142 173 220 221 -132 170 -231 -221 -134 -173 -221 hvcurveto
          -220 127 -170 223 vhcurveto
          3 159 rmoveto
          -120 -53 98 133 132 54 105 120 120 55 -102 -133 -130 -55 -103 -121 hvcurveto
          endchar
        </CharString>
        <CharString name="period">
          -733 245 -18 rmoveto
          86 66 70 82 83 -66 72 -86 -89 -66 -72 -83 -82 67 -70 88 hvcurveto
          endchar
        </CharString>
        <CharString name="periodcentered">
          -784 90 488 rmoveto
          242 252 -242 hlineto
          endchar
        </CharString>
        <CharString name="pi">
          215 1154 -7 rmoveto
          46 0 41 6 45 8 0 0 12 161 2 48 -32 -10 -39 -13 -33 0 rrcurveto
          -63 -8 47 81 hvcurveto
          606 196 180 -895 vlineto
          -174 0 -104 -8 -90 -66 rrcurveto
          26 -175 rlineto
          75 44 68 26 118 6 -2 -78 -42 -639 -106 -216 rrcurveto
          214 hlineto
          109 205 34 385 14 338 rrcurveto
          355 0 -2 -617 rlineto
          -187 43 -132 192 vhcurveto
          endchar
        </CharString>
        <CharString name="plus">
          -26 492 146 rmoveto
          198 408 408 191 -407 408 -198 -408 -410 -191 409 hlineto
          endchar
        </CharString>
        <CharString name="plusminus">
          82 180 hmoveto
          929 177 -929 hlineto
          364 84 rmoveto
          200 375 365 192 -366 368 -199 -368 -364 -192 364 hlineto
          endchar
        </CharString>
        <CharString name="product">
          323 220 -247 rmoveto
          218 1504 669 -1504 220 1697 -1107 hlineto
          endchar
        </CharString>
        <CharString name="q">
          53 606 177 rmoveto
          -161 -102 125 250 256 105 118 155 175 94 -114 -277 hvcurveto
          -3 -256 -98 -102 -165 0 rrcurveto
          256 -634 rmoveto
          263 13 rlineto
          1543 -230 vlineto
          -21 -140 rlineto
          -51 79 -99 88 -175 0 rrcurveto
          -302 -165 -240 -331 -340 187 -237 286 hvcurveto
          197 0 83 116 34 56 -5 -52 -2 -47 0 -43 rrcurveto
          endchar
        </CharString>
        <CharString name="question">
          -319 376 -18 rmoveto
          87 65 70 82 83 -65 72 -87 -88 -67 -72 -83 -82 67 -70 88 hvcurveto
          -53 466 rmoveto
          111 hlineto
          156 306 225 153 0 241 0 233 -205 109 -183 0 -165 0 -109 -40 -102 -66 rrcurveto
          70 -166 rlineto
          58 36 85 49 135 0 130 0 76 -73 1 -117 0 -186 -246 -192 -37 -287 rrcurveto
          endchar
        </CharString>
        <CharString name="questiondown">
          -319 488 1217 rmoveto
          -87 -65 -70 -82 -83 65 -72 87 88 67 72 83 82 -67 70 -88 hvcurveto
          53 -466 rmoveto
          -111 hlineto
          -156 -306 -225 -153 0 -241 0 -233 205 -109 183 0 165 0 109 40 102 66 rrcurveto
          -70 166 rlineto
          -58 -36 -85 -49 -135 0 -130 0 -76 73 -1 117 0 186 246 192 37 287 rrcurveto
          endchar
        </CharString>
        <CharString name="quotedbl">
          -422 487 955 rmoveto
          159 0 31 515 -223 0 rlineto
          -311 -515 rmoveto
          159 0 30 515 -224 0 rlineto
          endchar
        </CharString>
        <CharString name="quotedblbase">
          -201 512 -280 rmoveto
          180 0 163 492 -225 0 rlineto
          -472 -492 rmoveto
          173 0 169 492 -231 0 rlineto
          endchar
        </CharString>
        <CharString name="quotedblleft">
          -253 495 1466 rmoveto
          -159 0 -160 -493 219 0 rlineto
          400 493 rmoveto
          -170 0 -148 -493 210 0 rlineto
          endchar
        </CharString>
        <CharString name="quotedblright">
          -253 476 973 rmoveto
          159 0 160 493 -219 0 rlineto
          -400 -493 rmoveto
          170 0 148 493 -210 0 rlineto
          endchar
        </CharString>
        <CharString name="quoteleft">
          -764 386 1466 rmoveto
          -167 0 -159 -493 218 0 rlineto
          endchar
        </CharString>
        <CharString name="quoteright">
          -764 60 973 rmoveto
          167 0 159 493 -218 0 rlineto
          endchar
        </CharString>
        <CharString name="quotesinglbase">
          -649 116 -280 rmoveto
          169 0 159 492 -220 0 rlineto
          endchar
        </CharString>
        <CharString name="quotesingle">
          -766 140 929 rmoveto
          152 0 27 535 -214 0 rlineto
          endchar
        </CharString>
        <CharString name="r">
          -408 134 hmoveto
          -50 callsubr
          endchar
        </CharString>
        <CharString name="racute">
          -408 375 1248 rmoveto
          -40 callsubr
          -412 -1631 rmoveto
          -50 callsubr
          endchar
        </CharString>
        <CharString name="radical">
          82 592 -156 rmoveto
          161 0 461 1790 -174 0 rlineto
          -125 -491 -222 -869 -34 -140 rrcurveto
          -32 102 -231 635 -320 -60 26 -157 169 28 rlineto
          endchar
        </CharString>
        <CharString name="rcaron">
          -408 351.5 1248 rmoveto
          -30 callsubr
          44.5 -1601 rmoveto
          -50 callsubr
          endchar
        </CharString>
        <CharString name="rcommaaccent">
          -408 322.5 -620 rmoveto
          -29 callsubr
          -6 648 rmoveto
          0 vmoveto
          -318.5 -28 rmoveto
          -50 callsubr
          endchar
        </CharString>
        <CharString name="registered">
          529 865 -22 rmoveto
          423 357 315 448 447 -358 317 -423 -419 -356 -317 -447 -448 357 -315 419 hvcurveto
          100 vmoveto
          -382 -278 298 366 364 277 298 382 387 278 -298 -365 -366 -277 -297 -387 hvcurveto
          -162 735 rmoveto
          287 111 vlineto
          165 85 -6 -132 -128 -91 -21 -150 hvcurveto
          -267 -542 rmoveto
          148 417 152 hlineto
          15 -9 45 -84 52 -96 38 -73 71 -134 12 -21 rrcurveto
          165 hlineto
          -89 163 -105 198 -60 73 157 34 57 81 0 144 rrcurveto
          189 -140 73 -218 vhcurveto
          -300 hlineto
          endchar
        </CharString>
        <CharString name="ring">
          -544 330 1158 rmoveto
          -36 callsubr
          93 vmoveto
          -35 callsubr
          endchar
        </CharString>
        <CharString name="s">
          -221 484 -20 rmoveto
          -49 callsubr
          endchar
        </CharString>
        <CharString name="sacute">
          -221 425.5 1248 rmoveto
          -40 callsubr
          -112.5 -1651 rmoveto
          -49 callsubr
          endchar
        </CharString>
        <CharString name="scaron">
          -221 402 1248 rmoveto
          -30 callsubr
          344 -1621 rmoveto
          -49 callsubr
          endchar
        </CharString>
        <CharString name="scedilla">
          -221 308 -388.299804688 rmoveto
          -39 callsubr
          53 -12.7001953125 rmoveto
          -49 callsubr
          endchar
        </CharString>
        <CharString name="scircumflex">
          -221 148.5 1248 rmoveto
          -38 callsubr
          85.5 -1651 rmoveto
          -49 callsubr
          endchar
        </CharString>
        <CharString name="scommaaccent">
          -221 363 -640 rmoveto
          -29 callsubr
          -6 648 rmoveto
          0 vmoveto
          -9 -28 rmoveto
          -49 callsubr
          endchar
        </CharString>
        <CharString name="section">
          -172 607 589 rmoveto
          -16 6 -30 13 -15 6 -120 52 -80 57 0 79 0 57 40 51 58 30 145 -55 114 -58 0 -96 rrcurveto
          0 -54 -35 -47 -61 -41 rrcurveto
          -135 -620 rmoveto
          246 185 105 210 hvcurveto
          0 105 -49 68 -78 52 79 54 59 86 0 118 0 162 -141 90 -189 77 rrcurveto
          -139 57 -65 42 0 69 0 77 67 29 109 0 98 0 102 -26 80 -35 2 13 32 158 2 13 -108 41 -120 20 -112 -3 -225 -3 -157 -95 0 -192 rrcurveto
          0 -106 47 -74 79 -55 rrcurveto
          -80 -51 -63 -86 0 -113 0 -173 130 -85 207 -83 158 -69 54 -46 -19 -70 -11 -67 -77 -33 -112 0 -99 0 -135 35 -91 43 rrcurveto
          -191 vlineto
          92 -44 116 -24 126 0 rrcurveto
          endchar
        </CharString>
        <CharString name="semicolon">
          -758 125 841 rmoveto
          264 264 -264 hlineto
          -18 -1427 rmoveto
          158 0 124 568 -226 0 rlineto
          endchar
        </CharString>
        <CharString name="seven">
          -170 237 hmoveto
          268 0 472 1302 0 157 -900 0 -2 -201 604 0 rlineto
          endchar
        </CharString>
        <CharString name="six">
          -1 603 179 rmoveto
          -176 -93 112 160 164 77 116 195 189 89 -111 -167 hvcurveto
          -161 -102 -113 -179 vhcurveto
          12 -200 rmoveto
          312 224 189 288 275 -203 188 -286 hvcurveto
          -47 0 -34 -11 -41 -14 rrcurveto
          454 573 -310 0 rlineto
          0 0 -395 -498 -21 -27 -112 -148 -91 -137 0 -194 rrcurveto
          -292 226 -192 324 vhcurveto
          endchar
        </CharString>
        <CharString name="slash">
          -257 52 -189 rmoveto
          213 0 627 1678 -218 0 rlineto
          endchar
        </CharString>
        <CharString name="space">
          -665 endchar
        </CharString>
        <CharString name="sterling">
          -57 85 hmoveto
          1012 0 8 214 -569 0 rlineto
          -8 0 -131 0 -8 -1 82 70 30 99 0 127 rrcurveto
          150 391 179 -391 179 vlineto
          162 60 99 152 vhcurveto
          102 0 82 -41 88 -59 rrcurveto
          103 169 rlineto
          -100 84 -127 56 -158 0 rrcurveto
          -329 -122 -226 -318 hvcurveto
          -105 -185 -179 185 -190 vlineto
          0 -156 -50 -67 -133 -56 rrcurveto
          endchar
        </CharString>
        <CharString name="summation">
          63 60 -336 rmoveto
          1164 196 -870 hlineto
          567 715 -539 693 799 0 0 190 -1100 0 0 -125 590 -766 -611 -783 rlineto
          endchar
        </CharString>
        <CharString name="t">
          -403 572 -15 rmoveto
          -48 callsubr
          endchar
        </CharString>
        <CharString name="tcaron">
          -403 935 883 rmoveto
          -107 callsubr
          -363 -898 rmoveto
          -48 callsubr
          endchar
        </CharString>
        <CharString name="tcommaaccent">
          -403 268.5 -357 rmoveto
          -39 callsubr
          180.5 -39 rmoveto
          -48 callsubr
          endchar
        </CharString>
        <CharString name="thorn">
          82 694 176 rmoveto
          -220 -90 150 205 204 95 150 217 204 75 -167 -187 -187 -75 -168 -206 hvcurveto
          -534 -607 rmoveto
          225 549 hlineto
          19 -32 116 -105 206 0 rrcurveto
          329 151 249 291 305 -165 246 -330 hvcurveto
          -184 0 -120 -102 -22 -32 rrcurveto
          560 -230 vlineto
          0 5 -228 -65 hvcurveto
          endchar
        </CharString>
        <CharString name="three">
          -128 485 -21 rmoveto
          291 233 145 274 hvcurveto
          0 180 -97 156 -184 36 rrcurveto
          157 52 83 117 0 159 0 230 -196 162 -278 0 -188 0 -132 -43 -112 -69 rrcurveto
          72 -190 rlineto
          86 55 117 39 132 0 163 0 81 -99 0 -106 0 -174 -161 -36 -213 -1 rrcurveto
          -56 -202 hlineto
          5 0 48 -1 5 0 rrcurveto
          241 -4 160 -36 0 -212 0 -133 -102 -91 -154 0 -137 0 -141 44 -73 61 rrcurveto
          -72 -189 rlineto
          88 -76 162 -48 172 0 rrcurveto
          endchar
        </CharString>
        <CharString name="threequarters">
          477 1126 325 rmoveto
          211 340 rlineto
          -1 -14 0 -264 0 -62 rrcurveto
          -1057 -325 rmoveto
          203 0 1013 1471 -196 0 rlineto
          40 -1460 rmoveto
          157 0 1 179 117 0 -2 135 -114 0 0 564 -176 0 -387 -557 0 -142 404 0 rlineto
          -996 431 rmoveto
          161 148 89 173 hvcurveto
          0 94 -64 76 -78 28 rrcurveto
          107 35 17 107 0 21 0 156 -136 71 -142 0 -103 0 -105 -37 -69 -57 rrcurveto
          62 -107 rlineto
          42 32 85 28 73 0 rrcurveto
          79 38 -37 -54 -60 -43 -39 -113 hvcurveto
          -78 -136 hlineto
          77 1 rlineto
          114 68 -33 -83 -87 -60 -41 -88 hvcurveto
          -64 0 -87 22 -47 42 rrcurveto
          -49 -122 rlineto
          75 -55 91 -27 89 0 rrcurveto
          endchar
        </CharString>
        <CharString name="tilde">
          -420 46 1230 rmoveto
          -37 callsubr
          endchar
        </CharString>
        <CharString name="trademark">
          616 322 667 rmoveto
          167 657 246 146 -665 hlineto
          1 -146 251 0 rlineto
          479 -657 rmoveto
          164 543 hlineto
          210 -525 105 0 222 531 0 -549 161 0 0 803 -200 0 -228 -547 -218 547 -216 0 rlineto
          endchar
        </CharString>
        <CharString name="two">
          -152 85 hmoveto
          856 0 18 197 -591 0 330 350 rlineto
          143 149 135 173 0 206 0 271 -200 144 -279 0 -184 0 -136 -42 -102 -90 rrcurveto
          75 -198 rlineto
          74 66 129 55 129 0 133 0 92 -81 0 -127 0 -119 -55 -96 -110 -118 rrcurveto
          -463 -524 rlineto
          endchar
        </CharString>
        <CharString name="u">
          -43 581 -21 rmoveto
          -47 callsubr
          endchar
        </CharString>
        <CharString name="uacute">
          -43 504 1248 rmoveto
          -40 callsubr
          -94 -1652 rmoveto
          -47 callsubr
          endchar
        </CharString>
        <CharString name="ubreve">
          -43 581.5 1248 rmoveto
          -33 callsubr
          -0.5 -1269 rmoveto
          -47 callsubr
          endchar
        </CharString>
        <CharString name="ucircumflex">
          -43 227 1248 rmoveto
          -38 callsubr
          104 -1652 rmoveto
          -47 callsubr
          endchar
        </CharString>
        <CharString name="udieresis">
          -43 694 1248 rmoveto
          -43 callsubr
          -421 -254 rmoveto
          -42 callsubr
          308 -1523 rmoveto
          -47 callsubr
          endchar
        </CharString>
        <CharString name="ugrave">
          -43 500 1248 rmoveto
          -76 callsubr
          412 -1652 rmoveto
          -47 callsubr
          endchar
        </CharString>
        <CharString name="uhungarumlaut">
          -43 670 1248 rmoveto
          -27 callsubr
          -558 -361 rmoveto
          -26 callsubr
          -24 -1630 rmoveto
          -47 callsubr
          endchar
        </CharString>
        <CharString name="umacron">
          -43 238.5 1248 rmoveto
          -41 callsubr
          342.5 -1422 rmoveto
          -47 callsubr
          endchar
        </CharString>
        <CharString name="underscore">
          -51 72 -318 rmoveto
          1014 174 -1014 hlineto
          endchar
        </CharString>
        <CharString name="uni00A0">
          -665 endchar
        </CharString>
        <CharString name="uni00AD">
          -461 76 380 rmoveto
          595 204 -595 hlineto
          endchar
        </CharString>
        <CharString name="uni00B2">
          -372 146 574 rmoveto
          540 0 15 141 -315 0 rlineto
          182 157 132 102 0 189 0 170 -131 106 -147 0 -136 0 -84 -63 -67 -87 rrcurveto
          66 -120 rlineto
          44 66 80 48 74 0 68 0 69 -44 0 -80 0 -117 -191 -193 -199 -133 rrcurveto
          endchar
        </CharString>
        <CharString name="uni00B3">
          -406 380 603 rmoveto
          161 142 93 180 hvcurveto
          0 97 -70 79 -75 29 rrcurveto
          86 28 38 61 2 72 0 159 -130 69 -143 0 -101 0 -90 -33 -69 -56 rrcurveto
          48 -111 rlineto
          42 32 88 31 73 0 rrcurveto
          79 34 -40 -55 -60 -44 -38 -112 hvcurveto
          -79 -136 hlineto
          77 1 rlineto
          115 73 -40 -88 -93 -58 -45 -89 hvcurveto
          -64 0 -93 28 -47 44 rrcurveto
          -49 -126 rlineto
          74 -55 92 -27 89 0 rrcurveto
          endchar
        </CharString>
        <CharString name="uni00B9">
          -463 151 601 rmoveto
          473 148 -140 735 -144 hlineto
          -10 -10 -183 -90 -15 -8 rrcurveto
          -148 vlineto
          11 6 140 64 10 6 rrcurveto
          -555 -142 vlineto
          endchar
        </CharString>
        <CharString name="uni01C4">
          1517 2024 1608 rmoveto
          -30 callsubr
          -186 -1961 rmoveto
          -77 callsubr
          -1417 -174 rmoveto
          -100 callsubr
          271 -1248 rmoveto
          -99 callsubr
          endchar
        </CharString>
        <CharString name="uni01C5">
          1285 1904 1248 rmoveto
          -30 callsubr
          -63 -1601 rmoveto
          -44 callsubr
          -1420 -159 rmoveto
          -100 callsubr
          271 -1248 rmoveto
          -99 callsubr
          endchar
        </CharString>
        <CharString name="uni01C6">
          1030 1649 1248 rmoveto
          -30 callsubr
          -63 -1601 rmoveto
          -44 callsubr
          -720 19 rmoveto
          -70 callsubr
          -62 -199 rmoveto
          -69 callsubr
          endchar
        </CharString>
        <CharString name="uni01C7">
          498 998 -321 rmoveto
          -93 callsubr
          -829 108 rmoveto
          -91 callsubr
          endchar
        </CharString>
        <CharString name="uni01C8">
          392 1235 1259 rmoveto
          -60 callsubr
          -212 -1910 rmoveto
          -59 callsubr
          -836 233 rmoveto
          -91 callsubr
          endchar
        </CharString>
        <CharString name="uni01C9">
          21 864 1259 rmoveto
          -60 callsubr
          -212 -1910 rmoveto
          -59 callsubr
          -105 218 rmoveto
          -57 callsubr
          endchar
        </CharString>
        <CharString name="uni01CA">
          981 1481 -321 rmoveto
          -93 callsubr
          -1312 108 rmoveto
          -89 callsubr
          endchar
        </CharString>
        <CharString name="uni01CB">
          875 1718 1259 rmoveto
          -60 callsubr
          -212 -1910 rmoveto
          -59 callsubr
          -1319 233 rmoveto
          -89 callsubr
          endchar
        </CharString>
        <CharString name="uni01CC">
          575 1418 1259 rmoveto
          -60 callsubr
          -212 -1910 rmoveto
          -59 callsubr
          -1044 233 rmoveto
          -55 callsubr
          endchar
        </CharString>
        <CharString name="uni01F1">
          1517 1576 hmoveto
          -77 callsubr
          -1417 -174 rmoveto
          -100 callsubr
          271 -1248 rmoveto
          -99 callsubr
          endchar
        </CharString>
        <CharString name="uni01F2">
          1285 1579 hmoveto
          -44 callsubr
          -1420 -159 rmoveto
          -100 callsubr
          271 -1248 rmoveto
          -99 callsubr
          endchar
        </CharString>
        <CharString name="uni01F3">
          1030 1324 hmoveto
          -44 callsubr
          -720 19 rmoveto
          -70 callsubr
          -62 -199 rmoveto
          -69 callsubr
          endchar
        </CharString>
        <CharString name="uni01F4">
          260 639 1608 rmoveto
          -40 callsubr
          2 -2012 rmoveto
          -96 callsubr
          endchar
        </CharString>
        <CharString name="uni01F5">
          61 531 1248 rmoveto
          -40 callsubr
          -86 -1448 rmoveto
          -65 callsubr
          -263 -675 rmoveto
          -64 callsubr
          endchar
        </CharString>
        <CharString name="uni0200">
          153 767.5 1608 rmoveto
          -25 callsubr
          -67 -339 rmoveto
          -24 callsubr
          405.5 -1331 rmoveto
          -106 callsubr
          -873 -616 rmoveto
          -105 callsubr
          endchar
        </CharString>
        <CharString name="uni0201">
          -64 634 1248 rmoveto
          -25 callsubr
          -67 -339 rmoveto
          -24 callsubr
          539 -1422 rmoveto
          -75 callsubr
          -71 -186 rmoveto
          -74 callsubr
          endchar
        </CharString>
        <CharString name="uni0202">
          153 389 1608 rmoveto
          -23 callsubr
          105 -992 rmoveto
          -106 callsubr
          -873 -616 rmoveto
          -105 callsubr
          endchar
        </CharString>
        <CharString name="uni0203">
          -64 255.5 1248 rmoveto
          -23 callsubr
          238.5 -1083 rmoveto
          -75 callsubr
          -71 -186 rmoveto
          -74 callsubr
          endchar
        </CharString>
        <CharString name="uni0204">
          695.5 1608 rmoveto
          -25 callsubr
          -67 -339 rmoveto
          -24 callsubr
          141.5 -1947 rmoveto
          -98 callsubr
          endchar
        </CharString>
        <CharString name="uni0205">
          -49 667 1248 rmoveto
          -25 callsubr
          -67 -339 rmoveto
          -24 callsubr
          362 -926 rmoveto
          -68 callsubr
          -189 -682 rmoveto
          -67 callsubr
          endchar
        </CharString>
        <CharString name="uni0206">
          317 1608 rmoveto
          -23 callsubr
          -159 -1608 rmoveto
          -98 callsubr
          endchar
        </CharString>
        <CharString name="uni0207">
          -49 288.5 1248 rmoveto
          -23 callsubr
          61.5 -587 rmoveto
          -68 callsubr
          -189 -682 rmoveto
          -67 callsubr
          endchar
        </CharString>
        <CharString name="uni0208">
          -604 388.5 1608 rmoveto
          -25 callsubr
          -67 -339 rmoveto
          -24 callsubr
          455.5 -1947 rmoveto
          -94 callsubr
          endchar
        </CharString>
        <CharString name="uni0209">
          -658 344.5 1248 rmoveto
          -25 callsubr
          -67 -339 rmoveto
          -24 callsubr
          463.5 -1587 rmoveto
          -34 callsubr
          endchar
        </CharString>
        <CharString name="uni020A">
          -604 10 1608 rmoveto
          -23 callsubr
          155 -1608 rmoveto
          -94 callsubr
          endchar
        </CharString>
        <CharString name="uni020B">
          -658 -34 1248 rmoveto
          -23 callsubr
          163 -1248 rmoveto
          -34 callsubr
          endchar
        </CharString>
        <CharString name="uni020C">
          420 901 1608 rmoveto
          -25 callsubr
          -67 -339 rmoveto
          -24 callsubr
          591 -1968 rmoveto
          -88 callsubr
          1 221 rmoveto
          -87 callsubr
          endchar
        </CharString>
        <CharString name="uni020D">
          16 699 1248 rmoveto
          -25 callsubr
          -67 -339 rmoveto
          -24 callsubr
          585 -1608 rmoveto
          -54 callsubr
          7 199 rmoveto
          -53 callsubr
          endchar
        </CharString>
        <CharString name="uni020E">
          420 522.5 1608 rmoveto
          -23 callsubr
          290.5 -1629 rmoveto
          -88 callsubr
          1 221 rmoveto
          -87 callsubr
          endchar
        </CharString>
        <CharString name="uni020F">
          16 320.5 1248 rmoveto
          -23 callsubr
          284.5 -1269 rmoveto
          -54 callsubr
          7 199 rmoveto
          -53 callsubr
          endchar
        </CharString>
        <CharString name="uni0210">
          188 836.5 1608 rmoveto
          -25 callsubr
          -67 -339 rmoveto
          -24 callsubr
          560.5 -1123 rmoveto
          -84 callsubr
          -567 -824 rmoveto
          -83 callsubr
          endchar
        </CharString>
        <CharString name="uni0211">
          -408 540.5 1248 rmoveto
          -25 callsubr
          -67 -339 rmoveto
          -24 callsubr
          272.5 -1587 rmoveto
          -50 callsubr
          endchar
        </CharString>
        <CharString name="uni0212">
          188 458 1608 rmoveto
          -23 callsubr
          260 -784 rmoveto
          -84 callsubr
          -567 -824 rmoveto
          -83 callsubr
          endchar
        </CharString>
        <CharString name="uni0213">
          -408 162 1248 rmoveto
          -23 callsubr
          -28 -1248 rmoveto
          -50 callsubr
          endchar
        </CharString>
        <CharString name="uni0214">
          262 821.5 1608 rmoveto
          -25 callsubr
          -67 -339 rmoveto
          -24 callsubr
          587.5 -1968 rmoveto
          -80 callsubr
          endchar
        </CharString>
        <CharString name="uni0215">
          -43 669.5 1248 rmoveto
          -25 callsubr
          -67 -339 rmoveto
          -24 callsubr
          590.5 -1608 rmoveto
          -47 callsubr
          endchar
        </CharString>
        <CharString name="uni0216">
          262 443 1608 rmoveto
          -23 callsubr
          287 -1629 rmoveto
          -80 callsubr
          endchar
        </CharString>
        <CharString name="uni0217">
          -43 291 1248 rmoveto
          -23 callsubr
          290 -1269 rmoveto
          -47 callsubr
          endchar
        </CharString>
        <CharString name="uni021A">
          436 -620 rmoveto
          -29 callsubr
          -6 648 rmoveto
          0 vmoveto
          -125 -28 rmoveto
          -81 callsubr
          endchar
        </CharString>
        <CharString name="uni021B">
          -403 242 -635 rmoveto
          -29 callsubr
          -6 648 rmoveto
          0 vmoveto
          200 -28 rmoveto
          -48 callsubr
          endchar
        </CharString>
        <CharString name="uni0237">
          -679 -38 -364 rmoveto
          -28 callsubr
          endchar
        </CharString>
        <CharString name="uni0307">
          -691 157 1222 rmoveto
          -31 callsubr
          endchar
        </CharString>
        <CharString name="uni030F">
          -224 680 1197 rmoveto
          -25 callsubr
          -67 -339 rmoveto
          -24 callsubr
          endchar
        </CharString>
        <CharString name="uni0311">
          -493 63 1229 rmoveto
          -23 callsubr
          endchar
        </CharString>
        <CharString name="uni0326">
          -574 109 -658 rmoveto
          168 0 167 517 -225 0 rlineto
          endchar
        </CharString>
        <CharString name="uni1E02">
          127 605 1588 rmoveto
          -31 callsubr
          -176 -944 rmoveto
          -104 callsubr
          -232 -664 rmoveto
          -103 callsubr
          -506 -196 rmoveto
          -102 callsubr
          endchar
        </CharString>
        <CharString name="uni1E03">
          52 554.5 1643 rmoveto
          -31 callsubr
          104.5 -1681 rmoveto
          -73 callsubr
          63 -199 rmoveto
          -72 callsubr
          endchar
        </CharString>
        <CharString name="uni1E0A">
          308 686.5 1608 rmoveto
          -31 callsubr
          -527.5 -1824 rmoveto
          -100 callsubr
          271 -1248 rmoveto
          -99 callsubr
          endchar
        </CharString>
        <CharString name="uni1E0B">
          53 502 1643 rmoveto
          -31 callsubr
          102 -1681 rmoveto
          -70 callsubr
          -62 -199 rmoveto
          -69 callsubr
          endchar
        </CharString>
        <CharString name="uni1E1E">
          -103 491 1608 rmoveto
          -31 callsubr
          -333 -1824 rmoveto
          -97 callsubr
          endchar
        </CharString>
        <CharString name="uni1E1F">
          -446 300 1674 rmoveto
          -31 callsubr
          -97 -1890 rmoveto
          -66 callsubr
          endchar
        </CharString>
        <CharString name="uni1E40">
          635 820 1608 rmoveto
          -31 callsubr
          -662 -1824 rmoveto
          -90 callsubr
          endchar
        </CharString>
        <CharString name="uni1E41">
          705 859 1248 rmoveto
          -31 callsubr
          -726 -1464 rmoveto
          -56 callsubr
          endchar
        </CharString>
        <CharString name="uni1E56">
          39 575.5 1608 rmoveto
          -31 callsubr
          34.5 -1072 rmoveto
          -86 callsubr
          -459 -752 rmoveto
          -85 callsubr
          endchar
        </CharString>
        <CharString name="uni1E57">
          50 cntrmask 
          553.5 1249 rmoveto
          -31 callsubr
          107.5 -1286 rmoveto
          -52 callsubr
          -528 -636 rmoveto
          -51 callsubr
          endchar
        </CharString>
        <CharString name="uni1E60">
          -17 504.5 1613 rmoveto
          -31 callsubr
          64.5 -1849 rmoveto
          -82 callsubr
          endchar
        </CharString>
        <CharString name="uni1E61">
          -221 402.5 1248 rmoveto
          -31 callsubr
          81.5 -1484 rmoveto
          -49 callsubr
          endchar
        </CharString>
        <CharString name="uni1E6A">
          475.5 1608 rmoveto
          -31 callsubr
          -34.5 -1824 rmoveto
          -81 callsubr
          endchar
        </CharString>
        <CharString name="uni1E6B">
          -403 281.5 1520 rmoveto
          -31 callsubr
          290.5 -1751 rmoveto
          -48 callsubr
          endchar
        </CharString>
        <CharString name="uni2074">
          -339 284 953 rmoveto
          150 244 0 -244 rlineto
          2 -326 rmoveto
          157 0 1 173 117 0 -14 153 -102 0 0 493 -160 0 -351 -527 0 -119 352 0 rlineto
          endchar
        </CharString>
        <CharString name="uni2206">
          71 281 329 rmoveto
          363 967 358 -968 rlineto
          -905 -160 rmoveto
          1089 0 1 121 -468 1206 -150 0 -472 -1207 rlineto
          endchar
        </CharString>
        <CharString name="uniFB00">
          279 203 hmoveto
          262 925 479 -925 262 925 257 174 -257 75 hlineto
          125 41 50 114 vhcurveto
          38 0 46 -5 45 -6 rrcurveto
          23 195 rlineto
          -67 12 -71 7 -66 0 rrcurveto
          -276 -89 -133 -259 hvcurveto
          -61 -479 75 vlineto
          125 42 50 113 vhcurveto
          38 0 46 -5 45 -6 rrcurveto
          23 195 rlineto
          -66 12 -71 7 -67 0 -276 0 -88 -133 -1 -259 rrcurveto
          0 -61 rlineto
          -157 -20 -17 -154 174 0 rlineto
          endchar
        </CharString>
        <CharString name="uniFB01">
          -23 809 1259 rmoveto
          255 224 -255 hlineto
          -626 -1483 rmoveto
          255 942 371 -942 254 1098 -625 68 hlineto
          137 18 51 141 vhcurveto
          70 0 -22 190 -68 0 rlineto
          -344 0 -48 -137 -2 -276 rrcurveto
          -33 -173 -156 173 vlineto
          endchar
        </CharString>
        <CharString name="uniFB02">
          189 1234 -13 rmoveto
          75 0 45 11 25 3 rrcurveto
          -13 184 rlineto
          -13 -1 -5 -3 -46 0 rrcurveto
          -156 -12 62 181 hvcurveto
          1072 vlineto
          -97 6 -251 38 -177 0 -302 0 -122 -123 -2 -273 rrcurveto
          -46 -173 -156 173 -942 255 942 237 156 -237 68 vlineto
          1 134 40 52 171 0 87 0 89 -11 53 -4 rrcurveto
          -873 vlineto
          -296 43 -181 312 vhcurveto
          endchar
        </CharString>
        <CharString name="uogonek">
          -43 580 -432.799804688 rmoveto
          -32 callsubr
          1 411.799804688 rmoveto
          -47 callsubr
          endchar
        </CharString>
        <CharString name="uring">
          -43 582 1248 rmoveto
          -36 callsubr
          93 vmoveto
          -35 callsubr
          -1 -1362 rmoveto
          -47 callsubr
          endchar
        </CharString>
        <CharString name="utilde">
          -43 238 1248 rmoveto
          -37 callsubr
          343 -1269 rmoveto
          -47 callsubr
          endchar
        </CharString>
        <CharString name="v">
          -81 441 hmoveto
          265 0 416 1099 -276 0 rlineto
          -29 -77 -157 -482 -13 -37 -10 -27 -53 -205 -6 -22 -18 62 -35 105 -29 84 -49 147 -115 307 -51 145 rrcurveto
          -278 hlineto
          endchar
        </CharString>
        <CharString name="w">
          507 346 hmoveto
          -46 callsubr
          endchar
        </CharString>
        <CharString name="wacute">
          507 779 1248 rmoveto
          -40 callsubr
          -604 -1631 rmoveto
          -46 callsubr
          endchar
        </CharString>
        <CharString name="wcircumflex">
          507 502 1248 rmoveto
          -38 callsubr
          -406 -1631 rmoveto
          -46 callsubr
          endchar
        </CharString>
        <CharString name="wdieresis">
          507 969 1248 rmoveto
          -43 callsubr
          -421 -254 rmoveto
          -42 callsubr
          -202 -1502 rmoveto
          -46 callsubr
          endchar
        </CharString>
        <CharString name="wgrave">
          507 775 1248 rmoveto
          -76 callsubr
          -98 -1631 rmoveto
          -46 callsubr
          endchar
        </CharString>
        <CharString name="x">
          -48 21 hmoveto
          296 0 264 399 256 -399 300 0 -388 564 375 535 -292 0 -251 -374 rlineto
          -244 374 -297 0 372 -536 rlineto
          endchar
        </CharString>
        <CharString name="y">
          -90 191 -463 rmoveto
          -45 callsubr
          endchar
        </CharString>
        <CharString name="yacute">
          -90 474 1248 rmoveto
          -40 callsubr
          -454 -2094 rmoveto
          -45 callsubr
          endchar
        </CharString>
        <CharString name="ycircumflex">
          -90 197 1248 rmoveto
          -38 callsubr
          -256 -2094 rmoveto
          -45 callsubr
          endchar
        </CharString>
        <CharString name="ydieresis">
          -90 664 1248 rmoveto
          -43 callsubr
          -421 -254 rmoveto
          -42 callsubr
          -52 -1965 rmoveto
          -45 callsubr
          endchar
        </CharString>
        <CharString name="yen">
          -12 471 hmoveto
          263 289 351 153 -351 141 351 152 -276 hlineto
          428 724 -279 0 -359 -621 -359 621 -284 0 436 -724 -267 0 0 -152 346 0 0 -141 -347 0 0 -153 347 0 rlineto
          endchar
        </CharString>
        <CharString name="ygrave">
          -90 470 1248 rmoveto
          -76 callsubr
          52 -2094 rmoveto
          -45 callsubr
          endchar
        </CharString>
        <CharString name="z">
          -229 65 hmoveto
          -44 callsubr
          endchar
        </CharString>
        <CharString name="zacute">
          -229 413.5 1248 rmoveto
          -40 callsubr
          -519.5 -1631 rmoveto
          -44 callsubr
          endchar
        </CharString>
        <CharString name="zcaron">
          -229 390 1248 rmoveto
          -30 callsubr
          -63 -1601 rmoveto
          -44 callsubr
          endchar
        </CharString>
        <CharString name="zdotaccent">
          -229 390.5 1248 rmoveto
          -31 callsubr
          -325.5 -1464 rmoveto
          -44 callsubr
          endchar
        </CharString>
        <CharString name="zero">
          90 649 -21 rmoveto
          409 140 356 397 402 -145 356 -404 -404 -147 -353 -405 -397 142 -356 409 hvcurveto
          208 vmoveto
          -223 -57 276 281 hvcurveto
          2 273 57 265 221 0 rrcurveto
          222 56 -266 -276 -279 -56 -274 -222 hvcurveto
          endchar
        </CharString>
</ttFont>
